<?xml version="1.0" encoding="UTF-8" standalone="no"?>
<!-- Created with Inkscape (http://www.inkscape.org/) -->

<svg
   xmlns:ns0="http://www.iki.fi/pav/software/textext/"
   xmlns:osb="http://www.openswatchbook.org/uri/2009/osb"
   xmlns:dc="http://purl.org/dc/elements/1.1/"
   xmlns:cc="http://creativecommons.org/ns#"
   xmlns:rdf="http://www.w3.org/1999/02/22-rdf-syntax-ns#"
   xmlns:svg="http://www.w3.org/2000/svg"
   xmlns="http://www.w3.org/2000/svg"
   xmlns:xlink="http://www.w3.org/1999/xlink"
   xmlns:sodipodi="http://sodipodi.sourceforge.net/DTD/sodipodi-0.dtd"
   xmlns:inkscape="http://www.inkscape.org/namespaces/inkscape"
   sodipodi:docname="init.svg"
   inkscape:version="0.48.4 r9939"
   version="1.1"
   id="svg2"
   height="278.42035"
   width="433.91129">
  <sodipodi:namedview
     id="base"
     pagecolor="#ffffff"
     bordercolor="#666666"
     borderopacity="1.0"
     inkscape:pageopacity="0.0"
     inkscape:pageshadow="2"
     inkscape:zoom="1.4142136"
     inkscape:cx="85.45807"
     inkscape:cy="291.1633"
     inkscape:document-units="px"
     inkscape:current-layer="layer1"
     showgrid="true"
     inkscape:object-nodes="false"
     inkscape:object-paths="true"
     inkscape:snap-intersection-paths="true"
     inkscape:snap-smooth-nodes="false"
     inkscape:snap-midpoints="false"
     inkscape:snap-nodes="true"
     objecttolerance="8"
     gridtolerance="10"
     inkscape:window-width="1635"
     inkscape:window-height="1026"
     inkscape:window-x="45"
     inkscape:window-y="24"
     inkscape:window-maximized="1"
     fit-margin-top="0"
     fit-margin-left="2"
     fit-margin-right="0"
     fit-margin-bottom="0">
    <inkscape:grid
       originy="-144.94003mm"
       originx="-42.595716mm"
       snapvisiblegridlinesonly="true"
       enabled="true"
       visible="true"
       empspacing="5"
       units="mm"
       id="grid2985"
       type="axonomgrid" />
  </sodipodi:namedview>
  <defs
     id="defs4">
    <marker
       inkscape:stockid="TriangleOutM"
       orient="auto"
       refY="0"
       refX="0"
       id="TriangleOutM"
       style="overflow:visible">
      <path
         inkscape:connector-curvature="0"
         id="path6082"
         d="m 5.77,0 -8.65,5 0,-10 8.65,5 z"
         style="fill-rule:evenodd;stroke:#000000;stroke-width:1pt"
         transform="scale(0.4,0.4)" />
    </marker>
    <marker
       inkscape:stockid="Arrow1Send"
       orient="auto"
       refY="0"
       refX="0"
       id="Arrow1Send"
       style="overflow:visible">
      <path
         inkscape:connector-curvature="0"
         id="path5952"
         d="M 0,0 5,-5 -12.5,0 5,5 0,0 z"
         style="fill-rule:evenodd;stroke:#000000;stroke-width:1pt"
         transform="matrix(-0.2,0,0,-0.2,-1.2,0)" />
    </marker>
    <marker
       style="overflow:visible"
       id="TriangleOutL"
       refX="0"
       refY="0"
       orient="auto"
       inkscape:stockid="TriangleOutL">
      <path
         inkscape:connector-curvature="0"
         transform="scale(0.8,0.8)"
         style="fill-rule:evenodd;stroke:#000000;stroke-width:1pt"
         d="m 5.77,0 -8.65,5 0,-10 8.65,5 z"
         id="path6079" />
    </marker>
    <marker
       style="overflow:visible"
       id="Arrow2Lend"
       refX="0"
       refY="0"
       orient="auto"
       inkscape:stockid="Arrow2Lend">
      <path
         inkscape:connector-curvature="0"
         transform="matrix(-1.1,0,0,-1.1,-1.1,0)"
         d="M 8.7185878,4.0337352 -2.2072895,0.01601326 8.7185884,-4.0017078 c -1.7454984,2.3720609 -1.7354408,5.6174519 -6e-7,8.035443 z"
         style="fill-rule:evenodd;stroke-width:0.625;stroke-linejoin:round"
         id="path5958" />
    </marker>
    <marker
       style="overflow:visible"
       id="Arrow2Lstart"
       refX="0"
       refY="0"
       orient="auto"
       inkscape:stockid="Arrow2Lstart">
      <path
         inkscape:connector-curvature="0"
         transform="matrix(1.1,0,0,1.1,1.1,0)"
         d="M 8.7185878,4.0337352 -2.2072895,0.01601326 8.7185884,-4.0017078 c -1.7454984,2.3720609 -1.7354408,5.6174519 -6e-7,8.035443 z"
         style="fill-rule:evenodd;stroke-width:0.625;stroke-linejoin:round"
         id="path5955" />
    </marker>
    <linearGradient
       osb:paint="solid"
       id="linearGradient5259">
      <stop
         id="stop5261"
         offset="0"
         style="stop-color:#f22d00;stop-opacity:1;" />
    </linearGradient>
    <linearGradient
       osb:paint="solid"
       id="linearGradient5253">
      <stop
         id="stop5255"
         offset="0"
         style="stop-color:#f20000;stop-opacity:1;" />
    </linearGradient>
    <linearGradient
       gradientUnits="userSpaceOnUse"
       y2="387.9921"
       x2="598.87579"
       y1="387.9921"
       x1="260.33047"
       id="linearGradient5263"
       xlink:href="#linearGradient5259"
       inkscape:collect="always" />
    <marker
       style="overflow:visible"
       id="TriangleOutLm"
       refX="0"
       refY="0"
       orient="auto"
       inkscape:stockid="TriangleOutLm">
      <path
         inkscape:connector-curvature="0"
         transform="scale(0.8,0.8)"
         style="fill:#ff0000;fill-rule:evenodd;stroke:#ff0000;stroke-width:1pt"
         d="m 5.77,0 -8.65,5 0,-10 8.65,5 z"
         id="path7133" />
    </marker>
    <marker
       style="overflow:visible"
       id="TriangleOutLm-0"
       refX="0"
       refY="0"
       orient="auto"
       inkscape:stockid="TriangleOutLm">
      <path
         inkscape:connector-curvature="0"
         transform="scale(0.8,0.8)"
         style="fill:#ff0000;fill-rule:evenodd;stroke:#ff0000;stroke-width:1pt"
         d="m 5.77,0 -8.65,5 0,-10 8.65,5 z"
         id="path7133-6" />
    </marker>
    <marker
       style="overflow:visible"
       id="TriangleOutLm-09"
       refX="0"
       refY="0"
       orient="auto"
       inkscape:stockid="TriangleOutLm">
      <path
         inkscape:connector-curvature="0"
         transform="scale(0.8,0.8)"
         style="fill:#ff0000;fill-rule:evenodd;stroke:#ff0000;stroke-width:1pt"
         d="m 5.77,0 -8.65,5 0,-10 8.65,5 z"
         id="path7133-4" />
    </marker>
    <marker
       inkscape:stockid="TriangleOutMs"
       orient="auto"
       refY="0"
       refX="0"
       id="TriangleOutMs"
       style="overflow:visible">
      <path
         inkscape:connector-curvature="0"
         id="path8108"
         d="m 5.77,0 -8.65,5 0,-10 8.65,5 z"
         style="fill:#ff0000;fill-rule:evenodd;stroke:#ff0000;stroke-width:1pt"
         transform="scale(0.4,0.4)" />
    </marker>
  </defs>
  <metadata
     id="metadata7">
    <rdf:RDF>
      <cc:Work
         rdf:about="">
        <dc:format>image/svg+xml</dc:format>
        <dc:type
           rdf:resource="http://purl.org/dc/dcmitype/StillImage" />
        <dc:title />
      </cc:Work>
    </rdf:RDF>
  </metadata>
  <g
     transform="translate(-150.9297,-260.3748)"
     id="layer1"
     inkscape:groupmode="layer"
     inkscape:label="Layer 1">
    <path
       sodipodi:nodetypes="cc"
       inkscape:connector-curvature="0"
       id="path2995"
       d="m 285.37924,274.60628 174.90985,33.66141"
       style="fill:none;stroke:#e0e400;stroke-width:1.11874998;stroke-linecap:butt;stroke-linejoin:miter;stroke-miterlimit:4;stroke-opacity:1;stroke-dasharray:none;stroke-dashoffset:0" />
    <path
       sodipodi:nodetypes="cccc"
       inkscape:connector-curvature="0"
       id="path5455"
       d="m 368.23152,538.58266 18.74248,-97.44095 -36.086,0 z"
       style="fill:#5592cb;fill-opacity:0.11372549;stroke:none" />
    <path
       sodipodi:nodetypes="cccccc"
       inkscape:connector-curvature="0"
       id="path5447"
       d="m 242.819,377.56218 18.01149,10.42992 0,20.86034 153.42969,-109.44301 -92.05782,-17.71654 z"
       style="fill:#80ff80;fill-opacity:0.11372549;stroke:#68ee42;stroke-width:0.42500001;stroke-linecap:butt;stroke-linejoin:miter;stroke-miterlimit:4;stroke-opacity:0.72156863;stroke-dasharray:none" />
    <path
       sodipodi:nodetypes="cccccc"
       inkscape:connector-curvature="0"
       id="path5451"
       d="m 322.20236,281.69289 153.42964,119.87229 6e-5,-13.57308 12.47394,-7.18692 -73.84582,-81.39575 z"
       style="fill:#c95555;fill-opacity:0.11372549;stroke:#c95555;stroke-width:0.42500001;stroke-linecap:butt;stroke-linejoin:miter;stroke-miterlimit:4;stroke-opacity:0.72156863;stroke-dasharray:none" />
    <path
       sodipodi:nodetypes="ccccc"
       inkscape:connector-curvature="0"
       id="path5449"
       d="m 322.20236,281.69289 19.01164,106.29921 56.035,0 17.01118,-88.58267 z"
       style="fill:#5593cb;fill-opacity:0.11372549;stroke:#557fcb;stroke-width:0.42500001;stroke-linecap:butt;stroke-linejoin:miter;stroke-miterlimit:4;stroke-opacity:0.72156863;stroke-dasharray:none" />
    <path
       inkscape:connector-curvature="0"
       id="path2987"
       d="m 153.4297,325.98423 0,106.29921 107.40079,62.00788 0,-106.29922 z"
       style="fill:#000000;fill-opacity:0.05882353;stroke:#000000;stroke-width:1;stroke-linecap:butt;stroke-linejoin:miter;stroke-miterlimit:4;stroke-opacity:1;stroke-dasharray:none;stroke-dashoffset:0" />
    <path
       sodipodi:nodetypes="ccccc"
       inkscape:connector-curvature="0"
       id="path2987-3"
       d="m 583.03285,325.98423 0,106.29921 -107.40079,62.00788 0,-106.29922 z"
       style="fill:#000000;fill-opacity:0.05882353;stroke:#000000;stroke-width:1;stroke-linecap:butt;stroke-linejoin:miter;stroke-miterlimit:4;stroke-opacity:1;stroke-dasharray:none;stroke-dashoffset:0" />
    <path
       inkscape:connector-curvature="0"
       id="path2989"
       d="m 291.51643,387.9921 0,106.29922 153.42969,0 0,-106.29922 z"
       style="fill:#000000;fill-opacity:0.05882353;stroke:#000000;stroke-width:1px;stroke-linecap:butt;stroke-linejoin:miter;stroke-opacity:1" />
    <path
       sodipodi:nodetypes="cc"
       inkscape:connector-curvature="0"
       id="path3781"
       d="m 322.20236,281.69289 92.05782,17.71654"
       style="fill:#00ff00;fill-opacity:1;stroke:#00be00;stroke-width:1.85000002;stroke-linecap:butt;stroke-linejoin:miter;stroke-miterlimit:11.19999981;stroke-opacity:1;stroke-dasharray:none" />
    <path
       sodipodi:nodetypes="cccc"
       inkscape:connector-curvature="0"
       id="path5453"
       d="m 214.47,411.70818 21.81173,14.6604 -82.85203,59.06404 61.0403,-73.72444"
       style="fill:#80ff80;fill-opacity:0.11372549;stroke:none" />
    <path
       sodipodi:nodetypes="cccc"
       inkscape:connector-curvature="0"
       id="path5453-7"
       d="M 583.84188,486.29135 525.43,421.98218 l -21.912,1.443 z"
       style="fill:#c95555;fill-opacity:0.11372549;stroke:none" />
    <path
       transform="matrix(0.39298866,0,0,0.39298866,183.54196,171.24891)"
       d="m 364.12014,281.6929 c 0,6.20317 -5.02866,11.23184 -11.23183,11.23184 -6.20317,0 -11.23184,-5.02867 -11.23184,-11.23184 0,-6.20317 5.02867,-11.23183 11.23184,-11.23183 6.20317,0 11.23183,5.02866 11.23183,11.23183 z"
       sodipodi:ry="11.231833"
       sodipodi:rx="11.231833"
       sodipodi:cy="281.6929"
       sodipodi:cx="352.88831"
       id="path5749-5-5-3-3-7"
       style="fill:#00be00;fill-opacity:1;stroke:#00be00;stroke-width:0.95685601;stroke-miterlimit:4;stroke-opacity:1;stroke-dasharray:2.87056804, 2.87056804;stroke-dashoffset:0"
       sodipodi:type="arc" />
    <path
       inkscape:connector-curvature="0"
       id="path5658"
       d="m 214.5667,411.77318 21.60512,14.52153"
       style="color:#000000;fill:#68ee42;fill-opacity:1;fill-rule:nonzero;stroke:#68ee42;stroke-width:1.85000002;stroke-linecap:butt;stroke-linejoin:miter;stroke-miterlimit:4;stroke-opacity:1;stroke-dasharray:0.925, 0.925;stroke-dashoffset:0;marker:none;visibility:visible;display:inline;overflow:visible;enable-background:accumulate" />
    <path
       sodipodi:nodetypes="cc"
       inkscape:connector-curvature="0"
       id="path5778"
       d="m 350.93398,441.14171 35.99219,0"
       style="color:#000000;fill:#5693cb;fill-opacity:1;fill-rule:nonzero;stroke:#557fcb;stroke-width:1.85000002;stroke-linecap:butt;stroke-linejoin:miter;stroke-miterlimit:4;stroke-opacity:1;stroke-dasharray:5.55, 5.55;stroke-dashoffset:0;marker:none;visibility:visible;display:inline;overflow:visible;enable-background:accumulate" />
    <path
       d="m 351.9854,441.40005 c 0,0.58068 -0.47073,1.05141 -1.05141,1.05141 -0.58068,0 -1.05141,-0.47073 -1.05141,-1.05141 0,-0.58067 0.47073,-1.0514 1.05141,-1.0514 0.58068,0 1.05141,0.47073 1.05141,1.0514 z"
       sodipodi:ry="1.0514064"
       sodipodi:rx="1.0514064"
       sodipodi:cy="441.40005"
       sodipodi:cx="350.93399"
       id="path5782-4-1"
       style="color:#000000;fill:#567fcb;fill-opacity:1;fill-rule:nonzero;stroke:#557fcb;stroke-width:0.42500001;stroke-linecap:butt;stroke-linejoin:miter;stroke-miterlimit:4;stroke-opacity:1;stroke-dasharray:none;stroke-dashoffset:0;marker:none;visibility:visible;display:inline;overflow:visible;enable-background:accumulate"
       sodipodi:type="arc"
       transform="matrix(2.7691924,0,0,2.7691924,-620.57687,-781.4194)" />
    <path
       d="m 215.78372,411.75949 c 0,0.54242 -0.43972,0.98214 -0.98215,0.98214 -0.54242,0 -0.98214,-0.43972 -0.98214,-0.98214 0,-0.54242 0.43972,-0.98214 0.98214,-0.98214 0.54243,0 0.98215,0.43972 0.98215,0.98214 z"
       sodipodi:ry="0.98214287"
       sodipodi:rx="0.98214287"
       sodipodi:cy="411.75949"
       sodipodi:cx="214.80157"
       id="path5673-0-2"
       style="color:#000000;fill:#68ee42;fill-opacity:1;fill-rule:nonzero;stroke:#68ee42;stroke-width:2.32500005;stroke-linecap:butt;stroke-linejoin:miter;stroke-miterlimit:4;stroke-opacity:1;stroke-dasharray:none;stroke-dashoffset:0;marker:none;visibility:visible;display:inline;overflow:visible;enable-background:accumulate"
       sodipodi:type="arc"
       transform="matrix(1.6319733,0,0,1.6319733,-137.06608,-260.16156)" />
    <path
       inkscape:connector-curvature="0"
       id="path5862"
       d="m 525.43,421.98218 -22.18059,1.37064"
       style="fill:none;stroke:#c95555;stroke-width:1.85000002;stroke-linecap:butt;stroke-linejoin:miter;stroke-miterlimit:4;stroke-opacity:1;stroke-dasharray:3.7, 1.85, 0.925, 1.85;stroke-dashoffset:0" />
    <path
       d="m 351.9854,441.40005 c 0,0.58068 -0.47073,1.05141 -1.05141,1.05141 -0.58068,0 -1.05141,-0.47073 -1.05141,-1.05141 0,-0.58067 0.47073,-1.0514 1.05141,-1.0514 0.58068,0 1.05141,0.47073 1.05141,1.0514 z"
       sodipodi:ry="1.0514064"
       sodipodi:rx="1.0514064"
       sodipodi:cy="441.40005"
       sodipodi:cx="350.93399"
       id="path5782-4-8"
       style="color:#000000;fill:#c95555;fill-opacity:1;fill-rule:nonzero;stroke:#c95555;stroke-width:0.42500001;stroke-linecap:butt;stroke-linejoin:miter;stroke-miterlimit:4;stroke-opacity:1;stroke-dasharray:none;stroke-dashoffset:0;marker:none;visibility:visible;display:inline;overflow:visible;enable-background:accumulate"
       sodipodi:type="arc"
       transform="matrix(2.7691924,0,0,2.7691924,-468.27035,-798.97948)" />
    <path
       d="m 351.9854,441.40005 c 0,0.58068 -0.47073,1.05141 -1.05141,1.05141 -0.58068,0 -1.05141,-0.47073 -1.05141,-1.05141 0,-0.58067 0.47073,-1.0514 1.05141,-1.0514 0.58068,0 1.05141,0.47073 1.05141,1.0514 z"
       sodipodi:ry="1.0514064"
       sodipodi:rx="1.0514064"
       sodipodi:cy="441.40005"
       sodipodi:cx="350.93399"
       id="path5782-4-8-9"
       style="color:#000000;fill:#c95555;fill-opacity:1;fill-rule:nonzero;stroke:#c95555;stroke-width:0.42500001;stroke-linecap:butt;stroke-linejoin:miter;stroke-miterlimit:4;stroke-opacity:1;stroke-dasharray:none;stroke-dashoffset:0;marker:none;visibility:visible;display:inline;overflow:visible;enable-background:accumulate"
       sodipodi:type="arc"
       transform="matrix(2.7691924,0,0,2.7691924,-445.27035,-800.65805)" />
    <path
       transform="matrix(0.39298866,0,0,0.39298866,274.90402,188.14953)"
       d="m 364.12014,281.6929 c 0,6.20317 -5.02866,11.23184 -11.23183,11.23184 -6.20317,0 -11.23184,-5.02867 -11.23184,-11.23184 0,-6.20317 5.02867,-11.23183 11.23184,-11.23183 6.20317,0 11.23183,5.02866 11.23183,11.23183 z"
       sodipodi:ry="11.231833"
       sodipodi:rx="11.231833"
       sodipodi:cy="281.6929"
       sodipodi:cx="352.88831"
       id="path5749-5-5-3-3-7-6"
       style="fill:#00be00;fill-opacity:1;stroke:#00be00;stroke-width:0.95685601;stroke-miterlimit:4;stroke-opacity:1;stroke-dasharray:2.87056804, 2.87056804;stroke-dashoffset:0"
       sodipodi:type="arc" />
    <path
       sodipodi:nodetypes="cccccc"
       inkscape:connector-curvature="0"
       id="path8189"
       d="m 299.58344,353.32615 -0.26033,-13.97646 2.89127,1.56946 -2.92949,-7.562 -3.21436,3.915 3.31564,2.11395"
       style="fill:#000000;fill-opacity:1;stroke:#000000;stroke-width:2.28355861px;stroke-linecap:butt;stroke-linejoin:miter;stroke-opacity:1" />
    <path
       inkscape:connector-curvature="0"
       id="path8364"
       d="m 350.888,441.14171 17.34327,97.44095 18.74273,-97.44095"
       style="fill:none;stroke:#557fcb;stroke-width:0.42500001;stroke-linecap:butt;stroke-linejoin:miter;stroke-miterlimit:4;stroke-opacity:0.7254902;stroke-dasharray:none" />
    <path
       inkscape:connector-curvature="0"
       id="path8366"
       d="M 503.24941,423.36218 583.03285,485.43305 525.43,421.98218"
       style="fill:none;stroke:#c95555;stroke-width:0.42500001;stroke-linecap:butt;stroke-linejoin:miter;stroke-miterlimit:4;stroke-opacity:0.72156863;stroke-dasharray:none" />
    <path
       inkscape:connector-curvature="0"
       id="path8368"
       d="m 214.80158,411.0236 -61.37188,74.40945 82.24916,-58.6347"
       style="fill:none;stroke:#68ee42;stroke-width:0.42500001;stroke-linecap:butt;stroke-linejoin:miter;stroke-miterlimit:4;stroke-opacity:0.72156863;stroke-dasharray:none" />
    <g
       id="g3903"
       transform="matrix(2,0,0,-2,-143.01903,1777.5962)"
       xml:space="preserve"
       stroke-miterlimit="10.433"
       font-style="normal"
       font-variant="normal"
       font-weight="normal"
       font-stretch="normal"
       font-size-adjust="none"
       letter-spacing="normal"
       word-spacing="normal"
       ns0:text="$\\mathbf{l}_1$"
       ns0:preamble=""
       style="font-style:normal;font-variant:normal;font-weight:normal;font-stretch:normal;letter-spacing:normal;word-spacing:normal;text-anchor:start;fill:none;stroke:#000000;stroke-linecap:butt;stroke-linejoin:miter;stroke-miterlimit:10.43299961;stroke-opacity:1;stroke-dasharray:none;stroke-dashoffset:0"><path
         style="fill:#000000;stroke-width:0"
         inkscape:connector-curvature="0"
         d="m 225.66,714.02 -1.76,-0.08 v -0.47 c 0.62,0 0.69,0 0.69,-0.38 v -5.5 h -0.69 v -0.47 c 0.32,0.02 0.8,0.04 1.22,0.04 0.43,0 0.89,-0.02 1.23,-0.04 v 0.47 h -0.69 z"
         id="path3905" /><path
         style="fill:#000000;stroke-width:0"
         inkscape:connector-curvature="0"
         d="m 228.95,710.05 0,0.01 0,0.01 0,0.01 0,0.01 0,0 0,0.01 0,0.01 0,0.01 0,0 0,0.01 0,0.01 0,0 -0.01,0.01 0,0 0,0.01 0,0 0,0.01 0,0 0,0.01 0,0.01 -0.01,0.01 0,0 0,0.01 -0.01,0.01 0,0 -0.01,0.01 -0.01,0 0,0 -0.01,0.01 -0.01,0 -0.01,0 -0.01,0 0,0 -0.01,0 0,0 -0.01,0.01 0,0 -0.01,0 -0.01,0 0,0 -0.01,0 -0.01,0 0,0 -0.01,0 -0.01,0 -0.01,0 0,0 -0.01,0 -0.01,0 -0.01,0 c -0.45,-0.44 -1.08,-0.45 -1.37,-0.45 v -0.25 c 0.17,0 0.63,0 1.01,0.2 v -3.55 c 0,-0.23 0,-0.32 -0.69,-0.32 h -0.27 v -0.25 c 0.13,0.01 0.98,0.03 1.24,0.03 0.22,0 1.1,-0.02 1.25,-0.03 v 0.25 h -0.26 c -0.7,0 -0.7,0.09 -0.7,0.32 z"
         id="path3907" /></g>    <g
       style="font-style:normal;font-variant:normal;font-weight:normal;font-stretch:normal;letter-spacing:normal;word-spacing:normal;text-anchor:start;fill:none;stroke:#000000;stroke-linecap:butt;stroke-linejoin:miter;stroke-miterlimit:10.43299961;stroke-opacity:1;stroke-dasharray:none;stroke-dashoffset:0"
       ns0:preamble=""
       ns0:text="$\\mathbf{l}_2$"
       word-spacing="normal"
       letter-spacing="normal"
       font-size-adjust="none"
       font-stretch="normal"
       font-weight="normal"
       font-variant="normal"
       font-style="normal"
       stroke-miterlimit="10.433"
       xml:space="preserve"
       transform="matrix(2,0,0,-2,-75.63109,1774.7678)"
       id="g4929"><path
         style="fill:#000000;stroke-width:0"
         inkscape:connector-curvature="0"
         id="path4931"
         d="m 225.66,714.02 -1.76,-0.08 v -0.47 c 0.62,0 0.69,0 0.69,-0.38 v -5.5 h -0.69 v -0.47 c 0.32,0.02 0.8,0.04 1.22,0.04 0.43,0 0.89,-0.02 1.23,-0.04 v 0.47 h -0.69 z" /><path
         style="fill:#000000;stroke-width:0"
         inkscape:connector-curvature="0"
         id="path4933"
         d="m 230.13,706.9 h -0.23 c -0.03,-0.16 -0.1,-0.57 -0.19,-0.64 -0.05,-0.04 -0.59,-0.04 -0.69,-0.04 h -1.28 c 0.74,0.65 0.98,0.84 1.4,1.17 0.51,0.41 0.99,0.84 0.99,1.5 0,0.84 -0.74,1.36 -1.63,1.36 -0.86,0 -1.45,-0.61 -1.45,-1.25 0,-0.35 0.3,-0.39 0.37,-0.39 0.17,0 0.37,0.12 0.37,0.37 0,0.13 -0.05,0.37 -0.41,0.37 0.22,0.49 0.69,0.65 1.02,0.65 0.69,0 1.06,-0.54 1.06,-1.11 0,-0.6 -0.44,-1.08 -0.66,-1.33 l -1.68,-1.66 c -0.07,-0.06 -0.07,-0.07 -0.07,-0.27 h 2.87 z" /></g>    <g
       id="g5080"
       transform="matrix(2,0,0,-2,-6.3023,1774.7682)"
       xml:space="preserve"
       stroke-miterlimit="10.433"
       font-style="normal"
       font-variant="normal"
       font-weight="normal"
       font-stretch="normal"
       font-size-adjust="none"
       letter-spacing="normal"
       word-spacing="normal"
       ns0:text="$\\mathbf{l}_3$"
       ns0:preamble=""
       style="font-style:normal;font-variant:normal;font-weight:normal;font-stretch:normal;letter-spacing:normal;word-spacing:normal;text-anchor:start;fill:none;stroke:#000000;stroke-linecap:butt;stroke-linejoin:miter;stroke-miterlimit:10.43299961;stroke-opacity:1;stroke-dasharray:none;stroke-dashoffset:0"><path
         style="fill:#000000;stroke-width:0"
         inkscape:connector-curvature="0"
         d="m 225.66,714.02 -1.76,-0.08 v -0.47 c 0.62,0 0.69,0 0.69,-0.38 v -5.5 h -0.69 v -0.47 c 0.32,0.02 0.8,0.04 1.22,0.04 0.43,0 0.89,-0.02 1.23,-0.04 v 0.47 h -0.69 z"
         id="path5082" /><path
         style="fill:#000000;stroke-width:0"
         inkscape:connector-curvature="0"
         d="m 228.52,707.95 0.05,0 0.05,0 0.04,-0.01 0.05,0 0.05,-0.01 0.04,-0.02 0.05,-0.01 0.04,-0.02 0.04,-0.02 0.04,-0.02 0.04,-0.02 0.04,-0.02 0.04,-0.03 0.03,-0.03 0.04,-0.03 0.03,-0.04 0.03,-0.03 0.03,-0.04 0.02,-0.04 0.03,-0.04 0.02,-0.05 0.02,-0.05 0.02,-0.05 0.02,-0.05 0.02,-0.05 0.01,-0.06 0.01,-0.05 0.01,-0.06 0.01,-0.07 0.01,-0.06 0,-0.07 0,-0.07 c 0,-0.86 -0.5,-1.12 -0.91,-1.12 -0.27,0 -0.89,0.08 -1.18,0.49 0.33,0.02 0.4,0.25 0.4,0.39 0,0.22 -0.16,0.38 -0.38,0.38 -0.19,0 -0.39,-0.12 -0.39,-0.4 0,-0.65 0.72,-1.08 1.57,-1.08 0.97,0 1.64,0.65 1.64,1.34 0,0.55 -0.45,1.09 -1.22,1.25 0.73,0.26 1,0.78 1,1.21 0,0.55 -0.63,0.96 -1.41,0.96 -0.77,0 -1.36,-0.38 -1.36,-0.93 0,-0.24 0.15,-0.37 0.36,-0.37 0.22,0 0.35,0.16 0.35,0.35 0,0.2 -0.13,0.35 -0.35,0.36 0.24,0.31 0.72,0.39 0.98,0.39 0.32,0 0.75,-0.16 0.75,-0.76 0,-0.29 -0.09,-0.61 -0.28,-0.83 -0.23,-0.26 -0.42,-0.28 -0.77,-0.3 -0.17,-0.01 -0.19,-0.01 -0.22,-0.02 -0.02,0 -0.07,-0.01 -0.07,-0.09 0,-0.1 0.06,-0.1 0.18,-0.1 z"
         id="path5084" /></g>    <g
       ns0:preamble=""
       ns0:text="$\\mathbf{P}$"
       word-spacing="normal"
       letter-spacing="normal"
       font-size-adjust="none"
       font-stretch="normal"
       font-weight="normal"
       font-variant="normal"
       font-style="normal"
       stroke-miterlimit="10.433"
       xml:space="preserve"
       transform="matrix(2,0,0,-2,-134.41201,1688.2548)"
       id="g5312"
       style="font-style:normal;font-variant:normal;font-weight:normal;font-stretch:normal;letter-spacing:normal;word-spacing:normal;text-anchor:start;fill:none;stroke:#000000;stroke-linecap:butt;stroke-linejoin:miter;stroke-miterlimit:10.43299961;stroke-opacity:1;stroke-dasharray:none;stroke-dashoffset:0"><path
         id="path5314"
         d="m 226.31,710.12 -0.06,0.41 v 2.94 h 1.34 c 1.49,0 1.49,-0.75 1.49,-1.47 0,-0.7 0,-1.47 -1.5,-1.47 h 0 -1.33 l 0.06,-0.41 h 1.76 c 1.38,0 2.53,0.72 2.53,1.88 0,1.09 -0.98,1.94 -2.63,1.94 h -4.15 v -0.47 h 1.08 v -5.88 h -1.08 v -0.47 c 0.38,0.04 1.35,0.04 1.78,0.04 0.43,0 1.4,0 1.78,-0.04 v 0.47 h -1.07 z"
         inkscape:connector-curvature="0"
         style="fill:#000000;stroke-width:0" /></g>    <g
       id="g5489"
       transform="matrix(2,0,0,-2,-30.060829,1707.4398)"
       xml:space="preserve"
       stroke-miterlimit="10.433"
       font-style="normal"
       font-variant="normal"
       font-weight="normal"
       font-stretch="normal"
       font-size-adjust="none"
       letter-spacing="normal"
       word-spacing="normal"
       ns0:text="$\\mathbf{Q}$"
       ns0:preamble=""
       style="font-style:normal;font-variant:normal;font-weight:normal;font-stretch:normal;letter-spacing:normal;word-spacing:normal;text-anchor:start;fill:none;stroke:#000000;stroke-linecap:butt;stroke-linejoin:miter;stroke-miterlimit:10.43299961;stroke-opacity:1;stroke-dasharray:none;stroke-dashoffset:0"><path
         style="fill:#000000;stroke-width:0"
         inkscape:connector-curvature="0"
         d="m 229.32,707.3 0.15,0.07 0.14,0.06 0.14,0.07 0.13,0.08 0.12,0.08 0.12,0.08 0.11,0.09 0.1,0.09 0.1,0.09 0.09,0.1 0.09,0.1 0.08,0.1 0.08,0.1 0.07,0.11 0.06,0.1 0.06,0.11 0.06,0.11 0.05,0.11 0.05,0.11 0.04,0.12 0.04,0.11 0.03,0.11 0.03,0.11 0.03,0.12 0.02,0.11 0.02,0.11 0.02,0.11 0.01,0.11 0.01,0.11 0.01,0.11 0,0.1 0,0.1 c 0,2.15 -1.44,3.56 -3.65,3.56 -2.28,0 -3.66,-1.47 -3.66,-3.56 0,-2.02 1.35,-3.47 3.66,-3.47 v 0.39 c -0.55,0 -0.62,0.32 -0.62,0.44 h -0.35 c 0,-0.06 0,-0.17 0.03,-0.22 h 0 c -1.23,0.59 -1.26,2.1 -1.26,2.87 0,0.4 0,1.34 0.37,2.05 0.52,0.95 1.37,1.1 1.82,1.1 0.54,0 1.31,-0.2 1.79,-1.04 0.38,-0.67 0.41,-1.52 0.41,-2.11 0,-0.55 0,-2.03 -0.96,-2.69 -0.22,0.33 -0.57,0.85 -1.24,0.85 -0.51,0 -0.96,-0.33 -0.96,-0.81 h 0.35 c 0,0.27 0.29,0.46 0.62,0.46 0.28,0 0.62,-0.11 0.82,-0.74 h 0 c -0.25,-0.11 -0.55,-0.16 -0.82,-0.16 v -0.39 c 0.22,0 0.55,0.01 0.95,0.08 0.27,-1.12 0.47,-1.9 1.4,-1.9 1.01,0 1.36,1.17 1.36,1.85 0,0.07 0,0.25 -0.18,0.25 -0.15,0 -0.17,-0.13 -0.18,-0.2 -0.06,-0.37 -0.67,-0.38 -0.84,-0.38 -0.23,0 -0.53,0 -0.92,0.58 z"
         id="path5491" /></g>    <g
       style="font-style:normal;font-variant:normal;font-weight:normal;font-stretch:normal;letter-spacing:normal;word-spacing:normal;text-anchor:start;fill:none;stroke:#000000;stroke-linecap:butt;stroke-linejoin:miter;stroke-miterlimit:10.43299961;stroke-opacity:1;stroke-dasharray:none;stroke-dashoffset:0"
       ns0:preamble=""
       ns0:text="$\\mathbf{p}_2$"
       word-spacing="normal"
       letter-spacing="normal"
       font-size-adjust="none"
       font-stretch="normal"
       font-weight="normal"
       font-variant="normal"
       font-style="normal"
       stroke-miterlimit="10.433"
       xml:space="preserve"
       transform="matrix(2,0,0,-2,-116.03779,1864.829)"
       id="g6080"><path
         id="path6083"
         d="m 225.62,707.51 0.04,-0.03 0.04,-0.03 0.04,-0.03 0.04,-0.03 0.04,-0.02 0.04,-0.03 0.04,-0.02 0.04,-0.02 0.04,-0.03 0.04,-0.02 0.04,-0.01 0.04,-0.02 0.04,-0.02 0.04,-0.01 0.04,-0.02 0.04,-0.01 0.05,-0.01 0.04,-0.02 0.07,-0.02 0.08,-0.01 0.08,-0.01 0.08,-0.01 0.08,-0.01 0.08,0 0.07,0 -0.1,0.35 c -0.14,0 -0.61,0 -1.06,0.54 -0.11,0.13 -0.11,0.14 -0.11,0.33 v 2.1 c 0,0.19 0.01,0.2 0.15,0.34 0.4,0.41 0.91,0.47 1.13,0.47 0.67,0 1.23,-0.61 1.23,-1.86 0,-1.4 -0.7,-1.92 -1.34,-1.92 l 0.1,-0.35 c 1.5,0 2.51,0.89 2.51,2.27 0,1.32 -0.9,2.25 -2.34,2.25 -0.74,0 -1.27,-0.3 -1.5,-0.48 v 0.48 l -1.76,-0.07 v -0.47 c 0.62,0 0.69,0 0.69,-0.38 v -5.01 h -0.69 v -0.46 c 0.28,0.01 0.88,0.03 1.25,0.03 0.39,0 0.98,-0.02 1.26,-0.03 v 0.46 h -0.69 z"
         inkscape:connector-curvature="0"
         style="fill:#000000;stroke-width:0" /><path
         id="path6085"
         d="m 233.31,706.9 h -0.23 c -0.02,-0.16 -0.09,-0.57 -0.18,-0.64 -0.06,-0.04 -0.6,-0.04 -0.69,-0.04 h -1.28 c 0.73,0.65 0.97,0.84 1.39,1.17 0.51,0.41 0.99,0.84 0.99,1.5 0,0.84 -0.73,1.36 -1.63,1.36 -0.86,0 -1.44,-0.61 -1.44,-1.25 0,-0.35 0.3,-0.39 0.36,-0.39 0.17,0 0.37,0.12 0.37,0.37 0,0.13 -0.04,0.37 -0.41,0.37 0.22,0.49 0.69,0.65 1.02,0.65 0.7,0 1.06,-0.54 1.06,-1.11 0,-0.6 -0.43,-1.08 -0.66,-1.33 l -1.68,-1.66 c -0.06,-0.06 -0.06,-0.07 -0.06,-0.27 h 2.86 z"
         inkscape:connector-curvature="0"
         style="fill:#000000;stroke-width:0" /></g>    <g
       id="g6285"
       transform="matrix(2,0,0,-2,-213.60753,1853.4224)"
       xml:space="preserve"
       stroke-miterlimit="10.433"
       font-style="normal"
       font-variant="normal"
       font-weight="normal"
       font-stretch="normal"
       font-size-adjust="none"
       letter-spacing="normal"
       word-spacing="normal"
       ns0:text="$\\mathbf{q}_1$"
       ns0:preamble=""
       style="font-style:normal;font-variant:normal;font-weight:normal;font-stretch:normal;letter-spacing:normal;word-spacing:normal;text-anchor:start;fill:none;stroke:#000000;stroke-linecap:butt;stroke-linejoin:miter;stroke-miterlimit:10.43299961;stroke-opacity:1;stroke-dasharray:none;stroke-dashoffset:0"><path
         style="fill:#000000;stroke-width:0"
         inkscape:connector-curvature="0"
         d="m 227.79,710.81 -0.03,0.05 -0.04,0.04 -0.03,0.04 -0.04,0.04 -0.04,0.04 -0.04,0.04 -0.04,0.04 -0.04,0.04 -0.04,0.03 -0.04,0.04 -0.05,0.03 -0.04,0.03 -0.05,0.03 -0.04,0.03 -0.05,0.03 -0.05,0.03 -0.05,0.02 -0.05,0.02 -0.05,0.02 -0.05,0.03 -0.05,0.01 -0.05,0.02 -0.05,0.02 -0.06,0.01 -0.05,0.01 -0.05,0.01 -0.06,0.01 -0.05,0.01 -0.06,0.01 -0.05,0 -0.06,0 -0.05,0 c -1.45,0 -2.48,-0.88 -2.48,-2.26 0,-1.4 1.01,-2.26 2.39,-2.26 l 0.1,0.35 c -0.62,0 -1.22,0.58 -1.22,1.9 0,1.41 0.74,1.88 1.34,1.88 0.75,0 1.23,-0.79 1.23,-1.28 v -1.38 c 0,-0.18 0,-0.21 -0.15,-0.42 -0.4,-0.59 -0.9,-0.7 -1.2,-0.7 l -0.1,-0.35 c 0.48,0 0.93,0.13 1.39,0.53 v -1.94 h -0.69 v -0.46 c 0.28,0.01 0.88,0.03 1.26,0.03 0.39,0 0.97,-0.02 1.25,-0.03 v 0.46 h -0.68 v 5.93 h -0.41 z"
         id="path6287" /><path
         style="fill:#000000;stroke-width:0"
         inkscape:connector-curvature="0"
         d="m 231.81,710.05 0,0.01 0,0.01 0,0.01 0,0.01 0,0 0,0.01 0,0.01 0,0.01 0,0 0,0.01 0,0.01 0,0 0,0.01 0,0 0,0.01 0,0 0,0.01 -0.01,0 0,0.01 0,0.01 0,0.01 -0.01,0 0,0.01 0,0.01 -0.01,0 0,0.01 -0.01,0 -0.01,0 -0.01,0.01 0,0 -0.01,0 -0.01,0 -0.01,0 0,0 -0.01,0 0,0.01 -0.01,0 -0.01,0 0,0 -0.01,0 -0.01,0 0,0 -0.01,0 -0.01,0 0,0 -0.01,0 -0.01,0 -0.01,0 -0.01,0 -0.01,0 c -0.44,-0.44 -1.08,-0.45 -1.36,-0.45 v -0.25 c 0.16,0 0.63,0 1.01,0.2 v -3.55 c 0,-0.23 0,-0.32 -0.7,-0.32 h -0.26 v -0.25 c 0.12,0.01 0.98,0.03 1.24,0.03 0.21,0 1.09,-0.02 1.24,-0.03 v 0.25 h -0.26 c -0.7,0 -0.7,0.09 -0.7,0.32 z"
         id="path6289" /></g>    <g
       style="font-style:normal;font-variant:normal;font-weight:normal;font-stretch:normal;letter-spacing:normal;word-spacing:normal;text-anchor:start;fill:none;stroke:#000000;stroke-linecap:butt;stroke-linejoin:miter;stroke-miterlimit:10.43299961;stroke-opacity:1;stroke-dasharray:none;stroke-dashoffset:0"
       ns0:preamble=""
       ns0:text="$\\mathbf{q}_2$"
       word-spacing="normal"
       letter-spacing="normal"
       font-size-adjust="none"
       font-stretch="normal"
       font-weight="normal"
       font-variant="normal"
       font-style="normal"
       stroke-miterlimit="10.433"
       xml:space="preserve"
       transform="matrix(2,0,0,-2,-60.114266,1868.5441)"
       id="g6522"><path
         id="path6524"
         d="m 227.79,710.81 -0.03,0.05 -0.04,0.04 -0.03,0.04 -0.04,0.04 -0.04,0.04 -0.04,0.04 -0.04,0.04 -0.04,0.04 -0.04,0.03 -0.04,0.04 -0.05,0.03 -0.04,0.03 -0.05,0.03 -0.04,0.03 -0.05,0.03 -0.05,0.03 -0.05,0.02 -0.05,0.02 -0.05,0.02 -0.05,0.03 -0.05,0.01 -0.05,0.02 -0.05,0.02 -0.06,0.01 -0.05,0.01 -0.05,0.01 -0.06,0.01 -0.05,0.01 -0.06,0.01 -0.05,0 -0.06,0 -0.05,0 c -1.45,0 -2.48,-0.88 -2.48,-2.26 0,-1.4 1.01,-2.26 2.39,-2.26 l 0.1,0.35 c -0.62,0 -1.22,0.58 -1.22,1.9 0,1.41 0.74,1.88 1.34,1.88 0.75,0 1.23,-0.79 1.23,-1.28 v -1.38 c 0,-0.18 0,-0.21 -0.15,-0.42 -0.4,-0.59 -0.9,-0.7 -1.2,-0.7 l -0.1,-0.35 c 0.48,0 0.93,0.13 1.39,0.53 v -1.94 h -0.69 v -0.46 c 0.28,0.01 0.88,0.03 1.26,0.03 0.39,0 0.97,-0.02 1.25,-0.03 v 0.46 h -0.68 v 5.93 h -0.41 z"
         inkscape:connector-curvature="0"
         style="fill:#000000;stroke-width:0" /><path
         id="path6526"
         d="m 233,706.9 h -0.24 c -0.02,-0.16 -0.09,-0.57 -0.18,-0.64 -0.06,-0.04 -0.59,-0.04 -0.69,-0.04 h -1.28 c 0.73,0.65 0.97,0.84 1.39,1.17 0.51,0.41 1,0.84 1,1.5 0,0.84 -0.74,1.36 -1.63,1.36 -0.87,0 -1.45,-0.61 -1.45,-1.25 0,-0.35 0.3,-0.39 0.37,-0.39 0.16,0 0.37,0.12 0.37,0.37 0,0.13 -0.05,0.37 -0.42,0.37 0.22,0.49 0.69,0.65 1.02,0.65 0.7,0 1.06,-0.54 1.06,-1.11 0,-0.6 -0.43,-1.08 -0.65,-1.33 l -1.68,-1.66 c -0.07,-0.06 -0.07,-0.07 -0.07,-0.27 h 2.87 z"
         inkscape:connector-curvature="0"
         style="fill:#000000;stroke-width:0" /></g>    <path
       d="m 215.78372,411.75949 c 0,0.54242 -0.43972,0.98214 -0.98215,0.98214 -0.54242,0 -0.98214,-0.43972 -0.98214,-0.98214 0,-0.54242 0.43972,-0.98214 0.98214,-0.98214 0.54243,0 0.98215,0.43972 0.98215,0.98214 z"
       sodipodi:ry="0.98214287"
       sodipodi:rx="0.98214287"
       sodipodi:cy="411.75949"
       sodipodi:cx="214.80157"
       id="path5673-0-2-9"
       style="color:#000000;fill:#68ee42;fill-opacity:1;fill-rule:nonzero;stroke:#68ee42;stroke-width:2.32500005;stroke-linecap:butt;stroke-linejoin:miter;stroke-miterlimit:4;stroke-opacity:1;stroke-dasharray:none;stroke-dashoffset:0;marker:none;visibility:visible;display:inline;overflow:visible;enable-background:accumulate"
       sodipodi:type="arc"
       transform="matrix(1.6319733,0,0,1.6319733,-114.56006,-245.88584)" />
    <path
       d="m 351.9854,441.40005 c 0,0.58068 -0.47073,1.05141 -1.05141,1.05141 -0.58068,0 -1.05141,-0.47073 -1.05141,-1.05141 0,-0.58067 0.47073,-1.0514 1.05141,-1.0514 0.58068,0 1.05141,0.47073 1.05141,1.0514 z"
       sodipodi:ry="1.0514064"
       sodipodi:rx="1.0514064"
       sodipodi:cy="441.40005"
       sodipodi:cx="350.93399"
       id="path5782-4-1-3"
       style="color:#000000;fill:#567fcb;fill-opacity:1;fill-rule:nonzero;stroke:#557fcb;stroke-width:0.42500001;stroke-linecap:butt;stroke-linejoin:miter;stroke-miterlimit:4;stroke-opacity:1;stroke-dasharray:none;stroke-dashoffset:0;marker:none;visibility:visible;display:inline;overflow:visible;enable-background:accumulate"
       sodipodi:type="arc"
       transform="matrix(2.7691924,0,0,2.7691924,-585.09475,-781.07362)" />
    <g
       style="font-style:normal;font-variant:normal;font-weight:normal;font-stretch:normal;letter-spacing:normal;word-spacing:normal;text-anchor:start;fill:none;stroke:#000000;stroke-linecap:butt;stroke-linejoin:miter;stroke-miterlimit:10.43299961;stroke-opacity:1;stroke-dasharray:none;stroke-dashoffset:0"
       ns0:preamble=""
       ns0:text="$l_1$"
       word-spacing="normal"
       letter-spacing="normal"
       font-size-adjust="none"
       font-stretch="normal"
       font-weight="normal"
       font-variant="normal"
       font-style="normal"
       stroke-miterlimit="10.433"
       xml:space="preserve"
       transform="matrix(2,0,0,-2,-222.46923,1829.2627)"
       id="g6975"><path
         id="path6977"
         d="m 226,713.91 0,0 0,0 0,0 0,0 0,0.01 0,0 0,0 0,0.01 0,0 0,0.01 0,0 -0.01,0 0,0.01 0,0 0,0.01 0,0 -0.01,0.01 0,0 0,0.01 -0.01,0 0,0.01 0,0 -0.01,0 0,0 0,0.01 -0.01,0 0,0 0,0 -0.01,0 0,0.01 0,0 -0.01,0 0,0 0,0 -0.01,0 0,0 -0.01,0 0,0.01 -0.01,0 0,0 -0.01,0 0,0 -0.01,0 0,0 -0.01,0 c -0.23,0 -0.96,-0.08 -1.21,-0.1 -0.08,-0.01 -0.19,-0.02 -0.19,-0.21 0,-0.11 0.1,-0.11 0.24,-0.11 0.48,0 0.49,-0.09 0.49,-0.17 l -0.03,-0.2 -1.25,-4.96 c -0.03,-0.11 -0.05,-0.18 -0.05,-0.34 0,-0.57 0.44,-0.91 0.9,-0.91 0.33,0 0.58,0.19 0.75,0.55 0.18,0.38 0.3,0.96 0.3,0.98 0,0.1 -0.09,0.1 -0.12,0.1 -0.1,0 -0.11,-0.05 -0.14,-0.18 -0.17,-0.65 -0.36,-1.24 -0.76,-1.24 -0.29,0 -0.29,0.32 -0.29,0.46 0,0.24 0.01,0.29 0.06,0.48 z"
         inkscape:connector-curvature="0"
         style="fill:#000000;stroke-width:0" /><path
         id="path6979"
         d="m 228.74,710.05 0,0.01 0,0.01 0,0.01 0,0.01 0,0 0,0.01 0,0.01 0,0.01 0,0 0,0.01 0,0.01 0,0 -0.01,0.01 0,0 0,0.01 0,0 0,0.01 0,0 0,0.01 0,0.01 -0.01,0.01 0,0 0,0.01 -0.01,0.01 0,0 -0.01,0.01 -0.01,0 0,0 -0.01,0.01 -0.01,0 -0.01,0 -0.01,0 0,0 -0.01,0 0,0 -0.01,0.01 0,0 -0.01,0 -0.01,0 0,0 -0.01,0 -0.01,0 0,0 -0.01,0 -0.01,0 -0.01,0 0,0 -0.01,0 -0.01,0 -0.01,0 c -0.45,-0.44 -1.08,-0.45 -1.37,-0.45 v -0.25 c 0.17,0 0.63,0 1.01,0.2 v -3.55 c 0,-0.23 0,-0.32 -0.69,-0.32 h -0.27 v -0.25 c 0.13,0.01 0.99,0.03 1.24,0.03 0.22,0 1.1,-0.02 1.25,-0.03 v 0.25 h -0.27 c -0.69,0 -0.69,0.09 -0.69,0.32 z"
         inkscape:connector-curvature="0"
         style="fill:#000000;stroke-width:0" /></g>    <g
       id="g5903"
       transform="matrix(2,0,0,-2,37.385266,1849.0893)"
       xml:space="preserve"
       stroke-miterlimit="10.433"
       font-style="normal"
       font-variant="normal"
       font-weight="normal"
       font-stretch="normal"
       font-size-adjust="none"
       letter-spacing="normal"
       word-spacing="normal"
       ns0:text="$\\mathbf{p}_3$"
       ns0:preamble=""
       style="font-style:normal;font-variant:normal;font-weight:normal;font-stretch:normal;letter-spacing:normal;word-spacing:normal;text-anchor:start;fill:none;stroke:#000000;stroke-linecap:butt;stroke-linejoin:miter;stroke-miterlimit:10.43299961;stroke-opacity:1;stroke-dasharray:none;stroke-dashoffset:0"><path
         style="fill:#000000;stroke-width:0"
         inkscape:connector-curvature="0"
         d="m 225.62,707.51 0.04,-0.03 0.04,-0.03 0.04,-0.03 0.04,-0.03 0.04,-0.02 0.04,-0.03 0.04,-0.02 0.04,-0.02 0.04,-0.03 0.04,-0.02 0.04,-0.01 0.04,-0.02 0.04,-0.02 0.04,-0.01 0.04,-0.02 0.04,-0.01 0.05,-0.01 0.04,-0.02 0.07,-0.02 0.08,-0.01 0.08,-0.01 0.08,-0.01 0.08,-0.01 0.08,0 0.07,0 -0.1,0.35 c -0.14,0 -0.61,0 -1.06,0.54 -0.11,0.13 -0.11,0.14 -0.11,0.33 v 2.1 c 0,0.19 0.01,0.2 0.15,0.34 0.4,0.41 0.91,0.47 1.13,0.47 0.67,0 1.23,-0.61 1.23,-1.86 0,-1.4 -0.7,-1.92 -1.34,-1.92 l 0.1,-0.35 c 1.5,0 2.51,0.89 2.51,2.27 0,1.32 -0.9,2.25 -2.34,2.25 -0.74,0 -1.27,-0.3 -1.5,-0.48 v 0.48 l -1.76,-0.07 v -0.47 c 0.62,0 0.69,0 0.69,-0.38 v -5.01 h -0.69 v -0.46 c 0.28,0.01 0.88,0.03 1.25,0.03 0.39,0 0.98,-0.02 1.26,-0.03 v 0.46 h -0.69 z"
         id="path5905" /><path
         style="fill:#000000;stroke-width:0"
         inkscape:connector-curvature="0"
         d="m 231.7,707.95 0.05,0 0.05,0 0.05,-0.01 0.04,0 0.05,-0.01 0.05,-0.02 0.04,-0.01 0.04,-0.02 0.05,-0.02 0.04,-0.02 0.03,-0.02 0.04,-0.02 0.04,-0.03 0.03,-0.03 0.04,-0.03 0.03,-0.04 0.03,-0.03 0.03,-0.04 0.02,-0.04 0.03,-0.04 0.02,-0.05 0.02,-0.05 0.02,-0.05 0.02,-0.05 0.02,-0.05 0.01,-0.06 0.01,-0.05 0.01,-0.06 0.01,-0.07 0.01,-0.06 0,-0.07 0,-0.07 c 0,-0.86 -0.5,-1.12 -0.9,-1.12 -0.28,0 -0.89,0.08 -1.19,0.49 0.33,0.02 0.41,0.25 0.41,0.39 0,0.22 -0.17,0.38 -0.39,0.38 -0.19,0 -0.39,-0.12 -0.39,-0.4 0,-0.65 0.73,-1.08 1.57,-1.08 0.97,0 1.64,0.65 1.64,1.34 0,0.55 -0.45,1.09 -1.22,1.25 0.74,0.26 1,0.78 1,1.21 0,0.55 -0.63,0.96 -1.41,0.96 -0.77,0 -1.36,-0.38 -1.36,-0.93 0,-0.24 0.15,-0.37 0.36,-0.37 0.22,0 0.36,0.16 0.36,0.35 0,0.2 -0.14,0.35 -0.36,0.36 0.24,0.31 0.73,0.39 0.98,0.39 0.32,0 0.76,-0.16 0.76,-0.76 0,-0.29 -0.1,-0.61 -0.28,-0.83 -0.23,-0.26 -0.43,-0.28 -0.78,-0.3 -0.17,-0.01 -0.18,-0.01 -0.22,-0.02 -0.01,0 -0.07,-0.01 -0.07,-0.09 0,-0.1 0.06,-0.1 0.18,-0.1 z"
         id="path5907" /></g>    <g
       id="g6717"
       transform="matrix(2,0,0,-2,84.407066,1838.2542)"
       xml:space="preserve"
       stroke-miterlimit="10.433"
       font-style="normal"
       font-variant="normal"
       font-weight="normal"
       font-stretch="normal"
       font-size-adjust="none"
       letter-spacing="normal"
       word-spacing="normal"
       ns0:text="$\\mathbf{q}_3$"
       ns0:preamble=""
       style="font-style:normal;font-variant:normal;font-weight:normal;font-stretch:normal;letter-spacing:normal;word-spacing:normal;text-anchor:start;fill:none;stroke:#000000;stroke-linecap:butt;stroke-linejoin:miter;stroke-miterlimit:10.43299961;stroke-opacity:1;stroke-dasharray:none;stroke-dashoffset:0"><path
         d="m 227.79,710.81 -0.03,0.05 -0.04,0.04 -0.03,0.04 -0.04,0.04 -0.04,0.04 -0.04,0.04 -0.04,0.04 -0.04,0.04 -0.04,0.03 -0.04,0.04 -0.05,0.03 -0.04,0.03 -0.05,0.03 -0.04,0.03 -0.05,0.03 -0.05,0.03 -0.05,0.02 -0.05,0.02 -0.05,0.02 -0.05,0.03 -0.05,0.01 -0.05,0.02 -0.05,0.02 -0.06,0.01 -0.05,0.01 -0.05,0.01 -0.06,0.01 -0.05,0.01 -0.06,0.01 -0.05,0 -0.06,0 -0.05,0 c -1.45,0 -2.48,-0.88 -2.48,-2.26 0,-1.4 1.01,-2.26 2.39,-2.26 l 0.1,0.35 c -0.62,0 -1.22,0.58 -1.22,1.9 0,1.41 0.74,1.88 1.34,1.88 0.75,0 1.23,-0.79 1.23,-1.28 v -1.38 c 0,-0.18 0,-0.21 -0.15,-0.42 -0.4,-0.59 -0.9,-0.7 -1.2,-0.7 l -0.1,-0.35 c 0.48,0 0.93,0.13 1.39,0.53 v -1.94 h -0.69 v -0.46 c 0.28,0.01 0.88,0.03 1.26,0.03 0.39,0 0.97,-0.02 1.25,-0.03 v 0.46 h -0.68 v 5.93 h -0.41 z"
         id="path6719"
         inkscape:connector-curvature="0"
         style="fill:#000000;stroke-width:0" /><path
         d="m 231.38,707.95 0.05,0 0.05,0 0.05,-0.01 0.05,0 0.04,-0.01 0.05,-0.02 0.04,-0.01 0.05,-0.02 0.04,-0.02 0.04,-0.02 0.04,-0.02 0.03,-0.02 0.04,-0.03 0.04,-0.03 0.03,-0.03 0.03,-0.04 0.03,-0.03 0.03,-0.04 0.03,-0.04 0.02,-0.04 0.03,-0.05 0.02,-0.05 0.02,-0.05 0.01,-0.05 0.02,-0.05 0.01,-0.06 0.02,-0.05 0.01,-0.06 0,-0.07 0.01,-0.06 0,-0.07 0,-0.07 c 0,-0.86 -0.5,-1.12 -0.9,-1.12 -0.28,0 -0.89,0.08 -1.19,0.49 0.33,0.02 0.41,0.25 0.41,0.39 0,0.22 -0.17,0.38 -0.39,0.38 -0.19,0 -0.39,-0.12 -0.39,-0.4 0,-0.65 0.73,-1.08 1.57,-1.08 0.97,0 1.64,0.65 1.64,1.34 0,0.55 -0.45,1.09 -1.21,1.25 0.73,0.26 0.99,0.78 0.99,1.21 0,0.55 -0.63,0.96 -1.4,0.96 -0.78,0 -1.37,-0.38 -1.37,-0.93 0,-0.24 0.15,-0.37 0.36,-0.37 0.22,0 0.36,0.16 0.36,0.35 0,0.2 -0.14,0.35 -0.36,0.36 0.25,0.31 0.73,0.39 0.98,0.39 0.32,0 0.76,-0.16 0.76,-0.76 0,-0.29 -0.1,-0.61 -0.28,-0.83 -0.23,-0.26 -0.43,-0.28 -0.77,-0.3 -0.18,-0.01 -0.19,-0.01 -0.23,-0.02 -0.01,0 -0.07,-0.01 -0.07,-0.09 0,-0.1 0.07,-0.1 0.18,-0.1 z"
         id="path6721"
         inkscape:connector-curvature="0"
         style="fill:#000000;stroke-width:0" /></g>    <g
       style="font-style:normal;font-variant:normal;font-weight:normal;font-stretch:normal;letter-spacing:normal;word-spacing:normal;text-anchor:start;fill:none;stroke:#000000;stroke-linecap:butt;stroke-linejoin:miter;stroke-miterlimit:10.43299961;stroke-opacity:1;stroke-dasharray:none;stroke-dashoffset:0"
       ns0:preamble=""
       ns0:text="$l_2$"
       word-spacing="normal"
       letter-spacing="normal"
       font-size-adjust="none"
       font-stretch="normal"
       font-weight="normal"
       font-variant="normal"
       font-style="normal"
       stroke-miterlimit="10.433"
       xml:space="preserve"
       transform="matrix(2,0,0,-2,-83.595953,1847.6475)"
       id="g7665"><path
         style="fill:#000000;stroke-width:0"
         inkscape:connector-curvature="0"
         id="path7667"
         d="m 226,713.91 0,0 0,0 0,0 0,0 0,0.01 0,0 0,0 0,0.01 0,0 0,0.01 0,0 -0.01,0 0,0.01 0,0 0,0.01 0,0 -0.01,0.01 0,0 0,0.01 -0.01,0 0,0.01 0,0 -0.01,0 0,0 0,0.01 -0.01,0 0,0 0,0 -0.01,0 0,0.01 0,0 -0.01,0 0,0 0,0 -0.01,0 0,0 -0.01,0 0,0.01 -0.01,0 0,0 -0.01,0 0,0 -0.01,0 0,0 -0.01,0 c -0.23,0 -0.96,-0.08 -1.21,-0.1 -0.08,-0.01 -0.19,-0.02 -0.19,-0.21 0,-0.11 0.1,-0.11 0.24,-0.11 0.48,0 0.49,-0.09 0.49,-0.17 l -0.03,-0.2 -1.25,-4.96 c -0.03,-0.11 -0.05,-0.18 -0.05,-0.34 0,-0.57 0.44,-0.91 0.9,-0.91 0.33,0 0.58,0.19 0.75,0.55 0.18,0.38 0.3,0.96 0.3,0.98 0,0.1 -0.09,0.1 -0.12,0.1 -0.1,0 -0.11,-0.05 -0.14,-0.18 -0.17,-0.65 -0.36,-1.24 -0.76,-1.24 -0.29,0 -0.29,0.32 -0.29,0.46 0,0.24 0.01,0.29 0.06,0.48 z" /><path
         style="fill:#000000;stroke-width:0"
         inkscape:connector-curvature="0"
         id="path7669"
         d="m 229.92,706.9 h -0.24 c -0.02,-0.16 -0.08,-0.57 -0.18,-0.64 -0.05,-0.04 -0.59,-0.04 -0.68,-0.04 h -1.29 c 0.73,0.65 0.98,0.84 1.4,1.17 0.51,0.41 0.99,0.84 0.99,1.5 0,0.84 -0.74,1.36 -1.63,1.36 -0.86,0 -1.45,-0.61 -1.45,-1.25 0,-0.35 0.3,-0.39 0.37,-0.39 0.17,0 0.37,0.12 0.37,0.37 0,0.13 -0.05,0.37 -0.41,0.37 0.22,0.49 0.69,0.65 1.02,0.65 0.69,0 1.06,-0.54 1.06,-1.11 0,-0.6 -0.43,-1.08 -0.66,-1.33 l -1.68,-1.66 c -0.07,-0.06 -0.07,-0.07 -0.07,-0.27 h 2.87 z" /></g>    <g
       id="g7888"
       transform="matrix(2,0,0,-2,62.762677,1829.2632)"
       xml:space="preserve"
       stroke-miterlimit="10.433"
       font-style="normal"
       font-variant="normal"
       font-weight="normal"
       font-stretch="normal"
       font-size-adjust="none"
       letter-spacing="normal"
       word-spacing="normal"
       ns0:text="$l_3$"
       ns0:preamble=""
       style="font-style:normal;font-variant:normal;font-weight:normal;font-stretch:normal;letter-spacing:normal;word-spacing:normal;text-anchor:start;fill:none;stroke:#000000;stroke-linecap:butt;stroke-linejoin:miter;stroke-miterlimit:10.43299961;stroke-opacity:1;stroke-dasharray:none;stroke-dashoffset:0"><path
         style="fill:#000000;stroke-width:0"
         inkscape:connector-curvature="0"
         d="m 226,713.91 0,0 0,0 0,0 0,0 0,0.01 0,0 0,0 0,0.01 0,0 0,0.01 0,0 -0.01,0 0,0.01 0,0 0,0.01 0,0 -0.01,0.01 0,0 0,0.01 -0.01,0 0,0.01 0,0 -0.01,0 0,0 0,0.01 -0.01,0 0,0 0,0 -0.01,0 0,0.01 0,0 -0.01,0 0,0 0,0 -0.01,0 0,0 -0.01,0 0,0.01 -0.01,0 0,0 -0.01,0 0,0 -0.01,0 0,0 -0.01,0 c -0.23,0 -0.96,-0.08 -1.21,-0.1 -0.08,-0.01 -0.19,-0.02 -0.19,-0.21 0,-0.11 0.1,-0.11 0.24,-0.11 0.48,0 0.49,-0.09 0.49,-0.17 l -0.03,-0.2 -1.25,-4.96 c -0.03,-0.11 -0.05,-0.18 -0.05,-0.34 0,-0.57 0.44,-0.91 0.9,-0.91 0.33,0 0.58,0.19 0.75,0.55 0.18,0.38 0.3,0.96 0.3,0.98 0,0.1 -0.09,0.1 -0.12,0.1 -0.1,0 -0.11,-0.05 -0.14,-0.18 -0.17,-0.65 -0.36,-1.24 -0.76,-1.24 -0.29,0 -0.29,0.32 -0.29,0.46 0,0.24 0.01,0.29 0.06,0.48 z"
         id="path7890" /><path
         style="fill:#000000;stroke-width:0"
         inkscape:connector-curvature="0"
         d="m 228.31,707.95 0.05,0 0.05,0 0.04,-0.01 0.05,0 0.05,-0.01 0.04,-0.02 0.05,-0.01 0.04,-0.02 0.04,-0.02 0.04,-0.02 0.04,-0.02 0.04,-0.02 0.04,-0.03 0.03,-0.03 0.04,-0.03 0.03,-0.04 0.03,-0.03 0.03,-0.04 0.02,-0.04 0.03,-0.04 0.02,-0.05 0.02,-0.05 0.02,-0.05 0.02,-0.05 0.02,-0.05 0.01,-0.06 0.01,-0.05 0.01,-0.06 0.01,-0.07 0.01,-0.06 0,-0.07 0,-0.07 c 0,-0.86 -0.5,-1.12 -0.91,-1.12 -0.27,0 -0.89,0.08 -1.18,0.49 0.33,0.02 0.4,0.25 0.4,0.39 0,0.22 -0.16,0.38 -0.38,0.38 -0.19,0 -0.39,-0.12 -0.39,-0.4 0,-0.65 0.73,-1.08 1.57,-1.08 0.97,0 1.64,0.65 1.64,1.34 0,0.55 -0.45,1.09 -1.22,1.25 0.73,0.26 1,0.78 1,1.21 0,0.55 -0.64,0.96 -1.41,0.96 -0.77,0 -1.36,-0.38 -1.36,-0.93 0,-0.24 0.15,-0.37 0.36,-0.37 0.21,0 0.35,0.16 0.35,0.35 0,0.2 -0.14,0.35 -0.35,0.36 0.24,0.31 0.72,0.39 0.98,0.39 0.31,0 0.75,-0.16 0.75,-0.76 0,-0.29 -0.09,-0.61 -0.27,-0.83 -0.23,-0.26 -0.43,-0.28 -0.78,-0.3 -0.17,-0.01 -0.19,-0.01 -0.22,-0.02 -0.02,0 -0.07,-0.01 -0.07,-0.09 0,-0.1 0.06,-0.1 0.18,-0.1 z"
         id="path7892" /></g>    <g
       style="font-style:normal;font-variant:normal;font-weight:normal;font-stretch:normal;letter-spacing:normal;word-spacing:normal;text-anchor:start;fill:none;stroke:#000000;stroke-linecap:butt;stroke-linejoin:miter;stroke-miterlimit:10.43299961;stroke-opacity:1;stroke-dasharray:none;stroke-dashoffset:0"
       ns0:preamble=""
       ns0:text="$\\mathbf{p}_1$"
       word-spacing="normal"
       letter-spacing="normal"
       font-size-adjust="none"
       font-stretch="normal"
       font-weight="normal"
       font-variant="normal"
       font-style="normal"
       stroke-miterlimit="10.433"
       xml:space="preserve"
       transform="matrix(2,0,0,-2,-261.05766,1824.5135)"
       id="g3186"><path
         id="path3188"
         d="m 225.62,707.51 0.04,-0.03 0.04,-0.03 0.04,-0.03 0.04,-0.03 0.04,-0.02 0.04,-0.03 0.04,-0.02 0.04,-0.02 0.04,-0.03 0.04,-0.02 0.04,-0.01 0.04,-0.02 0.04,-0.02 0.04,-0.01 0.04,-0.02 0.04,-0.01 0.05,-0.01 0.04,-0.02 0.07,-0.02 0.08,-0.01 0.08,-0.01 0.08,-0.01 0.08,-0.01 0.08,0 0.07,0 -0.1,0.35 c -0.14,0 -0.61,0 -1.06,0.54 -0.11,0.13 -0.11,0.14 -0.11,0.33 v 2.1 c 0,0.19 0.01,0.2 0.15,0.34 0.4,0.41 0.91,0.47 1.13,0.47 0.67,0 1.23,-0.61 1.23,-1.86 0,-1.4 -0.7,-1.92 -1.34,-1.92 l 0.1,-0.35 c 1.5,0 2.51,0.89 2.51,2.27 0,1.32 -0.9,2.25 -2.34,2.25 -0.74,0 -1.27,-0.3 -1.5,-0.48 v 0.48 l -1.76,-0.07 v -0.47 c 0.62,0 0.69,0 0.69,-0.38 v -5.01 h -0.69 v -0.46 c 0.28,0.01 0.88,0.03 1.25,0.03 0.39,0 0.98,-0.02 1.26,-0.03 v 0.46 h -0.69 z"
         inkscape:connector-curvature="0"
         style="fill:#000000;stroke-width:0" /><path
         id="path3190"
         d="m 232.13,710.05 0,0.01 0,0.01 0,0.01 0,0.01 0,0 0,0.01 0,0.01 0,0.01 0,0 0,0.01 0,0.01 0,0 0,0.01 0,0 0,0.01 -0.01,0 0,0.01 0,0 0,0.01 0,0.01 0,0.01 -0.01,0 0,0.01 -0.01,0.01 0,0 -0.01,0.01 0,0 -0.01,0 -0.01,0.01 -0.01,0 0,0 -0.01,0 -0.01,0 0,0 -0.01,0 -0.01,0.01 0,0 -0.01,0 0,0 -0.01,0 -0.01,0 0,0 -0.01,0 -0.01,0 -0.01,0 0,0 -0.01,0 -0.01,0 -0.01,0 -0.01,0 c -0.44,-0.44 -1.08,-0.45 -1.36,-0.45 v -0.25 c 0.16,0 0.62,0 1.01,0.2 v -3.55 c 0,-0.23 0,-0.32 -0.7,-0.32 h -0.27 v -0.25 c 0.13,0.01 0.99,0.03 1.25,0.03 0.21,0 1.09,-0.02 1.24,-0.03 v 0.25 h -0.26 c -0.7,0 -0.7,0.09 -0.7,0.32 z"
         inkscape:connector-curvature="0"
         style="fill:#000000;stroke-width:0" /></g>    <path
       sodipodi:nodetypes="cccccc"
       inkscape:connector-curvature="0"
       id="path8189-2"
       d="m 436.88842,353.24037 0.26033,-13.97601 -2.89127,1.56946 2.92949,-7.47667 3.21436,3.82967 -3.31564,2.11395"
       style="fill:#000000;fill-opacity:1;stroke:#000000;stroke-width:2.28355861px;stroke-linecap:butt;stroke-linejoin:miter;stroke-opacity:1" />
    <path
       sodipodi:nodetypes="cccccc"
       inkscape:connector-curvature="0"
       id="path8189-0"
       d="m 368.45155,353.32615 -0.26033,-12.407 2.89127,0 -2.92949,-7.562 -2.99032,7.562 3.0916,0"
       style="fill:#000000;fill-opacity:1;stroke:#000000;stroke-width:2.28355861px;stroke-linecap:butt;stroke-linejoin:miter;stroke-opacity:1" />
    <g
       style="font-style:normal;font-variant:normal;font-weight:normal;font-stretch:normal;letter-spacing:normal;word-spacing:normal;text-anchor:start;fill:none;stroke:#000000;stroke-linecap:butt;stroke-linejoin:miter;stroke-miterlimit:10.43299961;stroke-opacity:1;stroke-dasharray:none;stroke-dashoffset:0"
       ns0:preamble=""
       ns0:text="$\\mathbf{O}_1$"
       word-spacing="normal"
       letter-spacing="normal"
       font-size-adjust="none"
       font-stretch="normal"
       font-weight="normal"
       font-variant="normal"
       font-style="normal"
       stroke-miterlimit="10.433"
       xml:space="preserve"
       transform="matrix(2,0,0,-2,-290.69593,1913.193)"
       id="content"><path
         id="path3193"
         d="m 231.38,710.49 0,0.2 -0.02,0.2 -0.02,0.19 -0.03,0.18 -0.03,0.18 -0.05,0.18 -0.05,0.17 -0.06,0.16 -0.07,0.16 -0.07,0.16 -0.08,0.15 -0.09,0.14 -0.1,0.14 -0.1,0.13 -0.11,0.13 -0.12,0.12 -0.12,0.11 -0.13,0.11 -0.13,0.1 -0.14,0.09 -0.15,0.09 -0.15,0.08 -0.16,0.07 -0.17,0.07 -0.17,0.05 -0.17,0.05 -0.18,0.05 -0.19,0.03 -0.19,0.03 -0.19,0.02 -0.21,0.01 -0.2,0.01 -0.01,-0.4 c 0.64,0 1.32,-0.28 1.72,-0.93 0.38,-0.64 0.42,-1.4 0.42,-2.08 0,-0.69 -0.04,-1.58 -0.46,-2.26 -0.45,-0.73 -1.14,-0.95 -1.68,-0.95 h 0 c -0.59,0 -1.31,0.28 -1.72,1.04 -0.33,0.61 -0.41,1.32 -0.41,2.17 0,0.64 0.03,1.48 0.47,2.16 0.41,0.6 1.07,0.85 1.66,0.85 l 0.01,0.4 c -2.28,0 -3.66,-1.47 -3.66,-3.56 0,-2.05 1.39,-3.47 3.65,-3.47 2.29,0 3.66,1.44 3.66,3.47 z"
         inkscape:connector-curvature="0"
         style="fill:#000000;stroke-width:0" /><path
         id="path3195"
         d="m 234.37,710.05 0,0.01 0,0.01 0,0.01 0,0.01 0,0 0,0.01 0,0.01 0,0.01 0,0 0,0.01 0,0.01 0,0 0,0.01 0,0 0,0.01 0,0 0,0.01 -0.01,0 0,0.01 0,0.01 0,0.01 -0.01,0 0,0.01 0,0.01 -0.01,0 0,0.01 -0.01,0 -0.01,0 -0.01,0.01 0,0 -0.01,0 -0.01,0 -0.01,0 0,0 -0.01,0 0,0.01 -0.01,0 -0.01,0 0,0 -0.01,0 -0.01,0 0,0 -0.01,0 -0.01,0 0,0 -0.01,0 -0.01,0 -0.01,0 -0.01,0 -0.01,0 c -0.44,-0.44 -1.08,-0.45 -1.36,-0.45 v -0.25 c 0.16,0 0.63,0 1.01,0.2 v -3.55 c 0,-0.23 0,-0.32 -0.7,-0.32 h -0.26 v -0.25 c 0.12,0.01 0.98,0.03 1.24,0.03 0.21,0 1.09,-0.02 1.24,-0.03 v 0.25 h -0.26 c -0.7,0 -0.7,0.09 -0.7,0.32 z"
         inkscape:connector-curvature="0"
         style="fill:#000000;stroke-width:0" /></g>    <g
       id="g3423"
       transform="matrix(2,0,0,-2,-76.01435,1949.1261)"
       xml:space="preserve"
       stroke-miterlimit="10.433"
       font-style="normal"
       font-variant="normal"
       font-weight="normal"
       font-stretch="normal"
       font-size-adjust="none"
       letter-spacing="normal"
       word-spacing="normal"
       ns0:text="$\\mathbf{O}_2$"
       ns0:preamble=""
       style="font-style:normal;font-variant:normal;font-weight:normal;font-stretch:normal;letter-spacing:normal;word-spacing:normal;text-anchor:start;fill:none;stroke:#000000;stroke-linecap:butt;stroke-linejoin:miter;stroke-miterlimit:10.43299961;stroke-opacity:1;stroke-dasharray:none;stroke-dashoffset:0"><path
         d="m 231.38,710.49 0,0.2 -0.02,0.2 -0.02,0.19 -0.03,0.18 -0.03,0.18 -0.05,0.18 -0.05,0.17 -0.06,0.16 -0.07,0.16 -0.07,0.16 -0.08,0.15 -0.09,0.14 -0.1,0.14 -0.1,0.13 -0.11,0.13 -0.12,0.12 -0.12,0.11 -0.13,0.11 -0.13,0.1 -0.14,0.09 -0.15,0.09 -0.15,0.08 -0.16,0.07 -0.17,0.07 -0.17,0.05 -0.17,0.05 -0.18,0.05 -0.19,0.03 -0.19,0.03 -0.19,0.02 -0.21,0.01 -0.2,0.01 -0.01,-0.4 c 0.64,0 1.32,-0.28 1.72,-0.93 0.38,-0.64 0.42,-1.4 0.42,-2.08 0,-0.69 -0.04,-1.58 -0.46,-2.26 -0.45,-0.73 -1.14,-0.95 -1.68,-0.95 h 0 c -0.59,0 -1.31,0.28 -1.72,1.04 -0.33,0.61 -0.41,1.32 -0.41,2.17 0,0.64 0.03,1.48 0.47,2.16 0.41,0.6 1.07,0.85 1.66,0.85 l 0.01,0.4 c -2.28,0 -3.66,-1.47 -3.66,-3.56 0,-2.05 1.39,-3.47 3.65,-3.47 2.29,0 3.66,1.44 3.66,3.47 z"
         id="path3425"
         inkscape:connector-curvature="0"
         style="fill:#000000;stroke-width:0" /><path
         d="m 235.56,706.9 h -0.24 c -0.02,-0.16 -0.09,-0.57 -0.18,-0.64 -0.06,-0.04 -0.59,-0.04 -0.69,-0.04 h -1.28 c 0.73,0.65 0.97,0.84 1.39,1.17 0.51,0.41 1,0.84 1,1.5 0,0.84 -0.74,1.36 -1.63,1.36 -0.87,0 -1.45,-0.61 -1.45,-1.25 0,-0.35 0.3,-0.39 0.37,-0.39 0.16,0 0.37,0.12 0.37,0.37 0,0.13 -0.05,0.37 -0.42,0.37 0.22,0.49 0.69,0.65 1.02,0.65 0.7,0 1.06,-0.54 1.06,-1.11 0,-0.6 -0.43,-1.08 -0.65,-1.33 l -1.68,-1.66 c -0.07,-0.06 -0.07,-0.07 -0.07,-0.27 h 2.87 z"
         id="path3427"
         inkscape:connector-curvature="0"
         style="fill:#000000;stroke-width:0" /></g>    <g
       style="font-style:normal;font-variant:normal;font-weight:normal;font-stretch:normal;letter-spacing:normal;word-spacing:normal;text-anchor:start;fill:none;stroke:#000000;stroke-linecap:butt;stroke-linejoin:miter;stroke-miterlimit:10.43299961;stroke-opacity:1;stroke-dasharray:none;stroke-dashoffset:0"
       ns0:preamble=""
       ns0:text="$\\mathbf{O}_3$"
       word-spacing="normal"
       letter-spacing="normal"
       font-size-adjust="none"
       font-stretch="normal"
       font-weight="normal"
       font-variant="normal"
       font-style="normal"
       stroke-miterlimit="10.433"
       xml:space="preserve"
       transform="matrix(2,0,0,-2,113.601,1913.1932)"
       id="g3642"><path
         id="path3644"
         d="m 231.38,710.49 0,0.2 -0.02,0.2 -0.02,0.19 -0.03,0.18 -0.03,0.18 -0.05,0.18 -0.05,0.17 -0.06,0.16 -0.07,0.16 -0.07,0.16 -0.08,0.15 -0.09,0.14 -0.1,0.14 -0.1,0.13 -0.11,0.13 -0.12,0.12 -0.12,0.11 -0.13,0.11 -0.13,0.1 -0.14,0.09 -0.15,0.09 -0.15,0.08 -0.16,0.07 -0.17,0.07 -0.17,0.05 -0.17,0.05 -0.18,0.05 -0.19,0.03 -0.19,0.03 -0.19,0.02 -0.21,0.01 -0.2,0.01 -0.01,-0.4 c 0.64,0 1.32,-0.28 1.72,-0.93 0.38,-0.64 0.42,-1.4 0.42,-2.08 0,-0.69 -0.04,-1.58 -0.46,-2.26 -0.45,-0.73 -1.14,-0.95 -1.68,-0.95 h 0 c -0.59,0 -1.31,0.28 -1.72,1.04 -0.33,0.61 -0.41,1.32 -0.41,2.17 0,0.64 0.03,1.48 0.47,2.16 0.41,0.6 1.07,0.85 1.66,0.85 l 0.01,0.4 c -2.28,0 -3.66,-1.47 -3.66,-3.56 0,-2.05 1.39,-3.47 3.65,-3.47 2.29,0 3.66,1.44 3.66,3.47 z"
         inkscape:connector-curvature="0"
         style="fill:#000000;stroke-width:0" /><path
         id="path3646"
         d="m 233.94,707.95 0.05,0 0.05,0 0.05,-0.01 0.05,0 0.04,-0.01 0.05,-0.02 0.04,-0.01 0.05,-0.02 0.04,-0.02 0.04,-0.02 0.04,-0.02 0.03,-0.02 0.04,-0.03 0.04,-0.03 0.03,-0.03 0.03,-0.04 0.03,-0.03 0.03,-0.04 0.03,-0.04 0.02,-0.04 0.03,-0.05 0.02,-0.05 0.02,-0.05 0.01,-0.05 0.02,-0.05 0.01,-0.06 0.02,-0.05 0.01,-0.06 0,-0.07 0.01,-0.06 0,-0.07 0,-0.07 c 0,-0.86 -0.5,-1.12 -0.9,-1.12 -0.28,0 -0.89,0.08 -1.19,0.49 0.33,0.02 0.41,0.25 0.41,0.39 0,0.22 -0.17,0.38 -0.39,0.38 -0.19,0 -0.39,-0.12 -0.39,-0.4 0,-0.65 0.73,-1.08 1.57,-1.08 0.97,0 1.64,0.65 1.64,1.34 0,0.55 -0.45,1.09 -1.21,1.25 0.73,0.26 0.99,0.78 0.99,1.21 0,0.55 -0.63,0.96 -1.4,0.96 -0.78,0 -1.37,-0.38 -1.37,-0.93 0,-0.24 0.15,-0.37 0.36,-0.37 0.22,0 0.36,0.16 0.36,0.35 0,0.2 -0.14,0.35 -0.36,0.36 0.25,0.31 0.73,0.39 0.99,0.39 0.31,0 0.75,-0.16 0.75,-0.76 0,-0.29 -0.1,-0.61 -0.28,-0.83 -0.23,-0.26 -0.43,-0.28 -0.77,-0.3 -0.18,-0.01 -0.19,-0.01 -0.23,-0.02 -0.01,0 -0.07,-0.01 -0.07,-0.09 0,-0.1 0.07,-0.1 0.18,-0.1 z"
         inkscape:connector-curvature="0"
         style="fill:#000000;stroke-width:0" /></g>  </g>
</svg>
