<?xml version="1.0" encoding="UTF-8" standalone="no"?>
<!-- Created with Inkscape (http://www.inkscape.org/) -->

<svg
   xmlns:ns0="http://www.iki.fi/pav/software/textext/"
   xmlns:dc="http://purl.org/dc/elements/1.1/"
   xmlns:cc="http://creativecommons.org/ns#"
   xmlns:rdf="http://www.w3.org/1999/02/22-rdf-syntax-ns#"
   xmlns:svg="http://www.w3.org/2000/svg"
   xmlns="http://www.w3.org/2000/svg"
   xmlns:sodipodi="http://sodipodi.sourceforge.net/DTD/sodipodi-0.dtd"
   xmlns:inkscape="http://www.inkscape.org/namespaces/inkscape"
   sodipodi:docname="projection.svg"
   inkscape:version="0.48.4 r9939"
   version="1.1"
   id="svg2"
   height="330.43808"
   width="399.86743">
  <sodipodi:namedview
     id="base"
     pagecolor="#ffffff"
     bordercolor="#666666"
     borderopacity="1.0"
     inkscape:pageopacity="0.0"
     inkscape:pageshadow="2"
     inkscape:zoom="1.4"
     inkscape:cx="-24.566637"
     inkscape:cy="118.38154"
     inkscape:document-units="px"
     inkscape:current-layer="layer1"
     showgrid="true"
     inkscape:snap-nodes="true"
     inkscape:object-paths="true"
     inkscape:snap-intersection-paths="true"
     inkscape:window-width="1635"
     inkscape:window-height="1026"
     inkscape:window-x="45"
     inkscape:window-y="24"
     inkscape:window-maximized="1"
     fit-margin-top="0"
     fit-margin-left="0"
     fit-margin-right="0"
     fit-margin-bottom="0">
    <inkscape:grid
       type="axonomgrid"
       id="grid2985"
       units="mm"
       empspacing="5"
       visible="true"
       enabled="true"
       snapvisiblegridlinesonly="true"
       originx="-22.770307mm"
       originy="-182.11667mm" />
  </sodipodi:namedview>
  <defs
     id="defs4">
    <marker
       inkscape:stockid="TriangleOutL"
       orient="auto"
       refY="0"
       refX="0"
       id="TriangleOutL"
       style="overflow:visible">
      <path
         id="path3913"
         d="m 5.77,0 -8.65,5 0,-10 8.65,5 z"
         style="fill-rule:evenodd;stroke:#000000;stroke-width:1pt"
         transform="scale(0.8,0.8)"
         inkscape:connector-curvature="0" />
    </marker>
    <marker
       inkscape:stockid="DiamondLend"
       orient="auto"
       refY="0"
       refX="0"
       id="DiamondLend"
       style="overflow:visible">
      <path
         id="path3868"
         d="M 0,-7.0710768 -7.0710894,0 0,7.0710589 7.0710462,0 0,-7.0710768 z"
         style="fill-rule:evenodd;stroke:#000000;stroke-width:1pt"
         transform="matrix(0.8,0,0,0.8,-5.6,0)"
         inkscape:connector-curvature="0" />
    </marker>
    <marker
       inkscape:stockid="EmptyDiamondL"
       orient="auto"
       refY="0"
       refX="0"
       id="EmptyDiamondL"
       style="overflow:visible">
      <path
         id="path3877"
         d="M 0,-7.0710768 -7.0710894,0 0,7.0710589 7.0710462,0 0,-7.0710768 z"
         style="fill:#ffffff;fill-rule:evenodd;stroke:#000000;stroke-width:1pt"
         transform="scale(0.8,0.8)"
         inkscape:connector-curvature="0" />
    </marker>
    <marker
       inkscape:stockid="DotL"
       orient="auto"
       refY="0"
       refX="0"
       id="DotL"
       style="overflow:visible">
      <path
         id="path3832"
         d="m -2.5,-1 c 0,2.76 -2.24,5 -5,5 -2.76,0 -5,-2.24 -5,-5 0,-2.76 2.24,-5 5,-5 2.76,0 5,2.24 5,5 z"
         style="fill-rule:evenodd;stroke:#000000;stroke-width:1pt"
         transform="matrix(0.8,0,0,0.8,5.92,0.8)"
         inkscape:connector-curvature="0" />
    </marker>
  </defs>
  <metadata
     id="metadata7">
    <rdf:RDF>
      <cc:Work
         rdf:about="">
        <dc:format>image/svg+xml</dc:format>
        <dc:type
           rdf:resource="http://purl.org/dc/dcmitype/StillImage" />
      </cc:Work>
    </rdf:RDF>
  </metadata>
  <g
     inkscape:label="Layer 1"
     inkscape:groupmode="layer"
     id="layer1"
     transform="translate(-80.68219,-76.628823)">
    <path
       inkscape:connector-curvature="0"
       id="path6811"
       d="M 138.08673,334.8425 368.23127,272.83462"
       style="fill:none;stroke:#680000;stroke-width:0.69999999000000002;stroke-linecap:butt;stroke-linejoin:miter;stroke-miterlimit:4;stroke-opacity:1;stroke-dasharray:0.69999999999999996, 0.69999999999999996;stroke-dashoffset:0" />
    <path
       style="fill:none;stroke:#e0e400;stroke-width:1.26976132;stroke-linecap:butt;stroke-linejoin:miter;stroke-miterlimit:4;stroke-opacity:1;stroke-dasharray:none;stroke-dashoffset:0"
       d="m 147.3002,199.12357 143.54923,82.42662"
       id="path2995-5"
       inkscape:connector-curvature="0" />
    <path
       style="fill:#000000;stroke:#000000;stroke-width:1px;stroke-linecap:butt;stroke-linejoin:miter;stroke-opacity:1;fill-opacity:0.05936073"
       d="m 139.4297,300.26769 0,-177.16535 184.11563,106.29921 0,177.16536 z"
       id="path4767"
       inkscape:connector-curvature="0" />
    <path
       style="fill:none;stroke:#00be00;stroke-width:1.85625005;stroke-linecap:butt;stroke-linejoin:miter;stroke-miterlimit:4;stroke-opacity:1;stroke-dasharray:3.7125001,3.7125001;stroke-dashoffset:0;marker-start:none;marker-end:none"
       d="m 171.30449,212.60383 57.73055,33.24614"
       id="path4797"
       inkscape:connector-curvature="0" />
    <path
       sodipodi:type="arc"
       style="fill:#00be00;fill-opacity:1;stroke:#00be00;stroke-width:0.95685601;stroke-miterlimit:4;stroke-opacity:1;stroke-dasharray:2.87056804, 2.87056804;stroke-dashoffset:0"
       id="path5749-5-08"
       sodipodi:cx="352.88831"
       sodipodi:cy="281.6929"
       sodipodi:rx="11.231833"
       sodipodi:ry="11.231833"
       d="m 364.12014,281.6929 c 0,6.20317 -5.02866,11.23184 -11.23183,11.23184 -6.20317,0 -11.23184,-5.02867 -11.23184,-11.23184 0,-6.20317 5.02867,-11.23183 11.23184,-11.23183 6.20317,0 11.23183,5.02866 11.23183,11.23183 z"
       transform="matrix(0.45103092,0,0,0.45103092,11.38519,85.675556)" />
    <path
       style="fill:none;stroke:#e0e400;stroke-width:1.11874998;stroke-linecap:butt;stroke-linejoin:miter;stroke-miterlimit:4;stroke-opacity:1;stroke-dasharray:none;stroke-dashoffset:0"
       d="M 153.45805,78.093341 460.31744,255.25869"
       id="path2995"
       inkscape:connector-curvature="0" />
    <path
       style="fill:#00d700;fill-opacity:1;stroke:#00be00;stroke-width:1.85625005;stroke-linecap:butt;stroke-linejoin:miter;stroke-miterlimit:4;stroke-opacity:1;stroke-dasharray:none;stroke-dashoffset:0;marker-start:none;marker-end:none"
       d="M 200.45861,105.38468 307.8594,167.39255"
       id="path3765"
       inkscape:connector-curvature="0" />
    <path
       style="fill:none;stroke:#0000ff;stroke-width:1.69399999999999995;stroke-linecap:butt;stroke-linejoin:miter;stroke-miterlimit:4;stroke-opacity:1;stroke-dasharray:5.08199999999999985, 5.08199999999999985;stroke-dashoffset:0;marker-start:none;marker-end:none"
       d="m 251.06357,135.02023 98.27703,56.45555"
       id="path4393"
       inkscape:connector-curvature="0" />
    <path
       style="fill:none;stroke:#00be00;stroke-width:0.69999999;stroke-linecap:butt;stroke-linejoin:miter;stroke-miterlimit:4;stroke-opacity:1;stroke-dasharray:0.7, 1.4;stroke-dashoffset:0"
       d="M 199.45861,104.52754 138.08673,334.8425"
       id="path4771"
       inkscape:connector-curvature="0" />
    <path
       style="fill:none;stroke:#0000ff;stroke-width:0.69999999000000002;stroke-linecap:butt;stroke-linejoin:miter;stroke-miterlimit:4;stroke-opacity:1;stroke-dasharray:0.69999999999999996, 1.39999999999999991;stroke-dashoffset:0"
       d="M 245.48752,131.10234 138.08673,334.8425"
       id="path4773"
       inkscape:connector-curvature="0" />
    <path
       style="fill:none;stroke:#00be00;stroke-width:0.69999999;stroke-linecap:butt;stroke-linejoin:miter;stroke-miterlimit:4;stroke-opacity:1;stroke-dasharray:0.7, 1.4;stroke-dashoffset:0"
       d="M 306.8594,166.53541 138.08673,334.8425"
       id="path4775"
       inkscape:connector-curvature="0" />
    <path
       style="fill:none;stroke:#0000ff;stroke-width:0.69999999000000002;stroke-linecap:butt;stroke-linejoin:miter;stroke-miterlimit:4;stroke-opacity:1;stroke-dasharray:0.69999999999999996, 1.39999999999999991;stroke-dashoffset:0"
       d="M 352.8883,193.11021 138.08673,334.8425"
       id="path4777"
       inkscape:connector-curvature="0" />
    <path
       style="fill:none;stroke:#0000ff;stroke-width:1.52599609000000003;stroke-linecap:butt;stroke-linejoin:miter;stroke-miterlimit:4;stroke-opacity:1;stroke-dasharray:none;stroke-dashoffset:0;marker-start:none;marker-mid:none;marker-end:none"
       d="m 199.3127,229.69872 49.37799,26.97934"
       id="path5167"
       inkscape:connector-curvature="0" />
    <path
       sodipodi:type="arc"
       style="fill:#ffffff;fill-opacity:0;stroke:none"
       id="path5721"
       sodipodi:cx="368.23126"
       sodipodi:cy="246.25983"
       sodipodi:rx="8.0433438e-12"
       sodipodi:ry="8.8582678"
       d="m 368.23126,246.25983 c 0,3.49414 0,6.66182 0,8.08743 l 0,-8.08743 z"
       sodipodi:start="5.2462461e-13"
       sodipodi:end="1.1505335" />
    <path
       sodipodi:type="arc"
       style="fill:#ffffff;fill-opacity:0;stroke:none"
       id="path5725"
       sodipodi:cx="398.91721"
       sodipodi:cy="255.11809"
       sodipodi:rx="15.34297"
       sodipodi:ry="8.8582678"
       d="m 414.26018,255.11809 c 0,4.89228 -6.86929,8.85827 -15.34297,8.85827 -8.47369,0 -15.34297,-3.96599 -15.34297,-8.85827 0,-4.89229 6.86928,-8.85827 15.34297,-8.85827 2.97799,0 5.89162,0.50036 8.38549,1.44004 l -8.38549,7.41823 z"
       sodipodi:start="5.2462461e-13"
       sodipodi:end="5.2906118" />
    <path
       sodipodi:type="arc"
       style="fill:#ffffff;fill-opacity:0;stroke:none"
       id="path5729"
       sodipodi:cx="375.90277"
       sodipodi:cy="262.78958"
       sodipodi:rx="7.6714849"
       sodipodi:ry="7.6714849"
       d="m 383.57426,262.78958 c 0,4.23685 -3.43464,7.67149 -7.67149,7.67149 -4.23684,0 -7.67148,-3.43464 -7.67148,-7.67149 0,-4.23684 3.43464,-7.67148 7.67148,-7.67148 1.489,0 2.94581,0.43332 4.19275,1.24711 l -4.19275,6.42437 z"
       sodipodi:start="5.2462461e-13"
       sodipodi:end="5.2906118" />
    <path
       sodipodi:type="arc"
       style="fill:#ffffff;fill-opacity:0;stroke:none"
       id="path5731"
       sodipodi:cx="424.39044"
       sodipodi:cy="311.27725"
       sodipodi:rx="56.159168"
       sodipodi:ry="56.159168"
       d="m 480.54961,311.27725 c 0,31.01585 -25.14332,56.15917 -56.15917,56.15917 -31.01585,0 -56.15917,-25.14332 -56.15917,-56.15917 0,-31.01585 25.14332,-56.15917 56.15917,-56.15917 10.9002,0 21.56483,3.17215 30.69304,9.1295 l -30.69304,47.02967 z"
       sodipodi:start="5.2462461e-13"
       sodipodi:end="5.2906118" />
    <path
       sodipodi:type="arc"
       style="fill:#be0000;fill-opacity:1;stroke:#680000;stroke-width:0.95685600999999998;stroke-miterlimit:4;stroke-opacity:1;stroke-dasharray:2.87056804000000021, 2.87056804000000021;stroke-dashoffset:0"
       id="path5749"
       sodipodi:cx="352.88831"
       sodipodi:cy="281.6929"
       sodipodi:rx="11.231833"
       sodipodi:ry="11.231833"
       d="m 364.12014,281.6929 c 0,6.20317 -5.02866,11.23184 -11.23183,11.23184 -6.20317,0 -11.23184,-5.02867 -11.23184,-11.23184 0,-6.20317 5.02867,-11.23183 11.23184,-11.23183 6.20317,0 11.23183,5.02866 11.23183,11.23183 z"
       transform="matrix(0.45103092,0,0,0.45103092,209.43906,146.21212)" />
    <path
       sodipodi:type="arc"
       style="fill:#be0000;fill-opacity:1;stroke:#680000;stroke-width:0.95685600999999998;stroke-miterlimit:4;stroke-opacity:1;stroke-dasharray:2.87056804000000021, 2.87056804000000021;stroke-dashoffset:0"
       id="path5749-9"
       sodipodi:cx="352.88831"
       sodipodi:cy="281.6929"
       sodipodi:rx="11.231833"
       sodipodi:ry="11.231833"
       d="m 364.12014,281.6929 c 0,6.20317 -5.02866,11.23184 -11.23183,11.23184 -6.20317,0 -11.23184,-5.02867 -11.23184,-11.23184 0,-6.20317 5.02867,-11.23183 11.23184,-11.23183 6.20317,0 11.23183,5.02866 11.23183,11.23183 z"
       transform="matrix(0.45103092,0,0,0.45103092,113.21173,170.78693)" />
    <path
       style="fill:none;stroke:#000000;stroke-width:1px;stroke-linecap:butt;stroke-linejoin:miter;stroke-opacity:1;marker-end:url(#TriangleOutL)"
       d="m 139.4297,335.4173 15.34297,8.85827"
       id="path7288"
       inkscape:connector-curvature="0" />
    <path
       style="fill:none;stroke:#000000;stroke-width:1px;stroke-linecap:butt;stroke-linejoin:miter;stroke-opacity:1;marker-end:url(#TriangleOutL)"
       d="m 139.4297,335.4173 15.34297,-8.85827"
       id="path7290"
       inkscape:connector-curvature="0" />
    <path
       style="fill:none;stroke:#000000;stroke-width:1px;stroke-linecap:butt;stroke-linejoin:miter;stroke-opacity:1;marker-end:url(#TriangleOutL)"
       d="m 139.4297,335.4173 0,17.71654"
       id="path7292"
       inkscape:connector-curvature="0" />
    <path
       style="fill:none;stroke:#000000;stroke-width:1px;stroke-linecap:butt;stroke-linejoin:miter;stroke-opacity:1;marker-end:url(#TriangleOutL)"
       d="m 353.71654,339.3858 15.34296,8.85827"
       id="path7486"
       inkscape:connector-curvature="0" />
    <path
       style="fill:none;stroke:#000000;stroke-width:1px;stroke-linecap:butt;stroke-linejoin:miter;stroke-opacity:1;marker-end:url(#TriangleOutL)"
       d="m 353.71654,339.3858 15.34296,-8.85826"
       id="path7864"
       inkscape:connector-curvature="0" />
    <path
       style="fill:none;stroke:#000000;stroke-width:1px;stroke-linecap:butt;stroke-linejoin:miter;stroke-opacity:1;marker-end:url(#TriangleOutL)"
       d="m 353.71654,339.3858 0,-17.71653"
       id="path7866"
       inkscape:connector-curvature="0" />
    <path
       sodipodi:type="arc"
       style="fill:#00be00;fill-opacity:1;stroke:#00be00;stroke-width:0.95685601;stroke-miterlimit:4;stroke-opacity:1;stroke-dasharray:2.87056804, 2.87056804;stroke-dashoffset:0"
       id="path5749-5"
       sodipodi:cx="352.88831"
       sodipodi:cy="281.6929"
       sodipodi:rx="11.231833"
       sodipodi:ry="11.231833"
       d="m 364.12014,281.6929 c 0,6.20317 -5.02866,11.23184 -11.23183,11.23184 -6.20317,0 -11.23184,-5.02867 -11.23184,-11.23184 0,-6.20317 5.02867,-11.23183 11.23184,-11.23183 6.20317,0 11.23183,5.02866 11.23183,11.23183 z"
       transform="matrix(0.45103092,0,0,0.45103092,148.83985,39.646317)" />
    <path
       sodipodi:type="arc"
       style="fill:none;stroke:#0000ff;stroke-width:4.00471448999999957;stroke-miterlimit:4;stroke-opacity:1;stroke-dasharray:none;stroke-dashoffset:0"
       id="path5749-90"
       sodipodi:cx="352.88831"
       sodipodi:cy="281.6929"
       sodipodi:rx="11.231833"
       sodipodi:ry="11.231833"
       d="m 364.12014,281.6929 c 0,6.20317 -5.02866,11.23184 -11.23183,11.23184 -6.20317,0 -11.23184,-5.02867 -11.23184,-11.23184 0,-6.20317 5.02867,-11.23183 11.23184,-11.23183 6.20317,0 11.23183,5.02866 11.23183,11.23183 z"
       transform="matrix(0.45103092,0,0,0.45103092,195.35459,66.496717)" />
    <path
       sodipodi:type="arc"
       style="fill:none;stroke:#0000ff;stroke-width:4.00471448999999957;stroke-miterlimit:4;stroke-opacity:1;stroke-dasharray:none;stroke-dashoffset:0"
       id="path5749-90-4"
       sodipodi:cx="352.88831"
       sodipodi:cy="281.6929"
       sodipodi:rx="11.231833"
       sodipodi:ry="11.231833"
       d="m 364.12014,281.6929 c 0,6.20317 -5.02866,11.23184 -11.23183,11.23184 -6.20317,0 -11.23184,-5.02867 -11.23184,-11.23184 0,-6.20317 5.02867,-11.23183 11.23184,-11.23183 6.20317,0 11.23183,5.02866 11.23183,11.23183 z"
       transform="matrix(0.45103092,0,0,0.45103092,87.727034,4.9331614)" />
    <path
       sodipodi:type="arc"
       style="fill:none;stroke:#0000ff;stroke-width:4.00471448999999957;stroke-miterlimit:4;stroke-opacity:1;stroke-dasharray:none;stroke-dashoffset:0"
       id="path5749-90-3"
       sodipodi:cx="352.88831"
       sodipodi:cy="281.6929"
       sodipodi:rx="11.231833"
       sodipodi:ry="11.231833"
       d="m 364.12014,281.6929 c 0,6.20317 -5.02866,11.23184 -11.23183,11.23184 -6.20317,0 -11.23184,-5.02867 -11.23184,-11.23184 0,-6.20317 5.02867,-11.23183 11.23184,-11.23183 6.20317,0 11.23183,5.02866 11.23183,11.23183 z"
       transform="matrix(0.45103092,0,0,0.45103092,93.897673,132.92528)" />
    <path
       sodipodi:type="arc"
       style="fill:none;stroke:#0000ff;stroke-width:4.00471448999999957;stroke-miterlimit:4;stroke-opacity:1;stroke-dasharray:none;stroke-dashoffset:0"
       id="path5749-90-31"
       sodipodi:cx="352.88831"
       sodipodi:cy="281.6929"
       sodipodi:rx="11.231833"
       sodipodi:ry="11.231833"
       d="m 364.12014,281.6929 c 0,6.20317 -5.02866,11.23184 -11.23183,11.23184 -6.20317,0 -11.23184,-5.02867 -11.23184,-11.23184 0,-6.20317 5.02867,-11.23183 11.23184,-11.23183 6.20317,0 11.23183,5.02866 11.23183,11.23183 z"
       transform="matrix(0.45103092,0,0,0.45103092,36.613087,99.657571)" />
    <path
       sodipodi:type="arc"
       style="fill:#00be00;fill-opacity:1;stroke:#00be00;stroke-width:0.95685601;stroke-miterlimit:4;stroke-opacity:1;stroke-dasharray:2.87056804, 2.87056804;stroke-dashoffset:0"
       id="path5749-5-5"
       sodipodi:cx="352.88831"
       sodipodi:cy="281.6929"
       sodipodi:rx="11.231833"
       sodipodi:ry="11.231833"
       d="m 364.12014,281.6929 c 0,6.20317 -5.02866,11.23184 -11.23183,11.23184 -6.20317,0 -11.23184,-5.02867 -11.23184,-11.23184 0,-6.20317 5.02867,-11.23183 11.23184,-11.23183 6.20317,0 11.23183,5.02866 11.23183,11.23183 z"
       transform="matrix(0.45103092,0,0,0.45103092,39.72703,-23.053353)" />
    <path
       sodipodi:type="arc"
       style="fill:#00be00;fill-opacity:1;stroke:#00be00;stroke-width:0.95685601;stroke-miterlimit:4;stroke-opacity:1;stroke-dasharray:2.87056804, 2.87056804;stroke-dashoffset:0"
       id="path5749-5-0"
       sodipodi:cx="352.88831"
       sodipodi:cy="281.6929"
       sodipodi:rx="11.231833"
       sodipodi:ry="11.231833"
       d="m 364.12014,281.6929 c 0,6.20317 -5.02866,11.23184 -11.23183,11.23184 -6.20317,0 -11.23184,-5.02867 -11.23184,-11.23184 0,-6.20317 5.02867,-11.23183 11.23184,-11.23183 6.20317,0 11.23183,5.02866 11.23183,11.23183 z"
       transform="matrix(0.45103092,0,0,0.45103092,68.871017,117.67218)" />
    <g
       style="font-style:normal;font-variant:normal;font-weight:normal;font-stretch:normal;letter-spacing:normal;word-spacing:normal;text-anchor:start;fill:none;stroke:#000000;stroke-linecap:butt;stroke-linejoin:miter;stroke-miterlimit:10.43299961;stroke-opacity:1;stroke-dasharray:none;stroke-dashoffset:0"
       id="g3550"
       transform="matrix(2.5,0,0,-2.5,-400.21454,1967.6175)"
       xml:space="preserve"
       stroke-miterlimit="10.433"
       font-style="normal"
       font-variant="normal"
       font-weight="normal"
       font-stretch="normal"
       font-size-adjust="none"
       letter-spacing="normal"
       word-spacing="normal"
       ns0:text="$\\mathbf{\\widetilde{p}}$"
       ns0:preamble=""><path
         style="fill:#000000;stroke-width:0"
         inkscape:connector-curvature="0"
         d="m 229.23,714.44 -0.09,-0.08 -0.09,-0.07 -0.1,-0.07 -0.09,-0.07 -0.1,-0.06 -0.09,-0.06 -0.1,-0.05 -0.09,-0.05 -0.05,-0.02 -0.05,-0.02 -0.05,-0.02 -0.05,-0.02 -0.04,-0.02 -0.05,-0.02 -0.05,-0.01 -0.05,-0.02 -0.05,-0.01 -0.05,-0.01 -0.04,-0.01 -0.05,-0.01 -0.05,0 -0.05,-0.01 -0.05,0 -0.04,0 c -0.4,0 -0.69,0.17 -1.04,0.37 -0.29,0.17 -0.59,0.34 -0.99,0.34 -0.25,0 -0.51,-0.08 -0.73,-0.18 -0.2,-0.1 -0.4,-0.21 -0.57,-0.35 l -0.53,-0.44 0.14,-0.17 c 0.48,0.41 1.01,0.71 1.52,0.71 0.4,0 0.69,-0.17 1.03,-0.37 0.29,-0.17 0.6,-0.34 1,-0.34 0.25,0 0.51,0.08 0.72,0.18 0.2,0.1 0.4,0.21 0.57,0.35 l 0.54,0.44 z"
         id="path3552" /><path
         style="fill:#000000;stroke-width:0"
         inkscape:connector-curvature="0"
         d="m 225.62,707.51 0.04,-0.03 0.04,-0.03 0.04,-0.03 0.04,-0.03 0.04,-0.02 0.04,-0.03 0.04,-0.02 0.04,-0.02 0.04,-0.03 0.04,-0.02 0.04,-0.01 0.04,-0.02 0.04,-0.02 0.04,-0.01 0.04,-0.02 0.04,-0.01 0.05,-0.01 0.04,-0.02 0.07,-0.02 0.08,-0.01 0.08,-0.01 0.08,-0.01 0.08,-0.01 0.08,0 0.07,0 -0.1,0.35 c -0.14,0 -0.61,0 -1.06,0.54 -0.11,0.13 -0.11,0.14 -0.11,0.33 v 2.1 c 0,0.19 0.01,0.2 0.15,0.34 0.4,0.41 0.91,0.47 1.13,0.47 0.67,0 1.23,-0.61 1.23,-1.86 0,-1.4 -0.7,-1.92 -1.34,-1.92 l 0.1,-0.35 c 1.5,0 2.51,0.89 2.51,2.27 0,1.32 -0.9,2.25 -2.34,2.25 -0.74,0 -1.27,-0.3 -1.5,-0.48 v 0.48 l -1.76,-0.07 v -0.47 c 0.62,0 0.69,0 0.69,-0.38 v -5.01 h -0.69 v -0.46 c 0.28,0.01 0.88,0.03 1.25,0.03 0.39,0 0.98,-0.02 1.26,-0.03 v 0.46 h -0.69 z"
         id="path3554" /></g>    <g
       id="content"
       transform="matrix(2.5,0,0,-2.5,-313.3617,2047.2609)"
       xml:space="preserve"
       stroke-miterlimit="10.433"
       font-style="normal"
       font-variant="normal"
       font-weight="normal"
       font-stretch="normal"
       font-size-adjust="none"
       letter-spacing="normal"
       word-spacing="normal"
       ns0:text="$\\mathbf{q}_\\textrm{d}$"
       ns0:preamble=""
       style="font-style:normal;font-variant:normal;font-weight:normal;font-stretch:normal;letter-spacing:normal;word-spacing:normal;text-anchor:start;fill:none;stroke:#000000;stroke-linecap:butt;stroke-linejoin:miter;stroke-miterlimit:10.43299961;stroke-opacity:1;stroke-dasharray:none;stroke-dashoffset:0"><path
         style="fill:#000000;stroke-width:0"
         inkscape:connector-curvature="0"
         d="m 227.79,710.81 -0.03,0.05 -0.04,0.04 -0.03,0.04 -0.04,0.04 -0.04,0.04 -0.04,0.04 -0.04,0.04 -0.04,0.04 -0.04,0.03 -0.04,0.04 -0.05,0.03 -0.04,0.03 -0.05,0.03 -0.04,0.03 -0.05,0.03 -0.05,0.03 -0.05,0.02 -0.05,0.02 -0.05,0.02 -0.05,0.03 -0.05,0.01 -0.05,0.02 -0.05,0.02 -0.06,0.01 -0.05,0.01 -0.05,0.01 -0.06,0.01 -0.05,0.01 -0.06,0.01 -0.05,0 -0.06,0 -0.05,0 c -1.45,0 -2.48,-0.88 -2.48,-2.26 0,-1.4 1.01,-2.26 2.39,-2.26 l 0.1,0.35 c -0.62,0 -1.22,0.58 -1.22,1.9 0,1.41 0.74,1.88 1.34,1.88 0.75,0 1.23,-0.79 1.23,-1.28 v -1.38 c 0,-0.18 0,-0.21 -0.15,-0.42 -0.4,-0.59 -0.9,-0.7 -1.2,-0.7 l -0.1,-0.35 c 0.48,0 0.93,0.13 1.39,0.53 v -1.94 h -0.69 v -0.46 c 0.28,0.01 0.88,0.03 1.26,0.03 0.39,0 0.97,-0.02 1.25,-0.03 v 0.46 h -0.68 v 5.93 h -0.41 z"
         id="path3510" /><path
         style="fill:#000000;stroke-width:0"
         inkscape:connector-curvature="0"
         d="m 233.26,704.18 v -0.65 l 1.46,0.11 v 0.31 c -0.69,0 -0.77,0.07 -0.77,0.55 v 6.03 l -1.44,-0.11 v -0.31 c 0.7,0 0.78,-0.07 0.78,-0.55 v -2.15 c -0.29,0.36 -0.72,0.62 -1.25,0.62 l 0.04,-0.22 c 0.34,0 0.76,-0.15 1.07,-0.6 0.11,-0.17 0.11,-0.18 0.11,-0.36 h 0 v -2.04 c 0,-0.18 0,-0.2 -0.11,-0.37 -0.3,-0.47 -0.75,-0.69 -1.17,-0.69 -0.45,0 -0.81,0.26 -1.05,0.63 -0.26,0.41 -0.29,0.98 -0.29,1.38 0,0.37 0.02,0.97 0.31,1.41 0.21,0.31 0.59,0.64 1.13,0.64 l -0.04,0.22 c -1.18,0 -2.22,-0.98 -2.22,-2.26 0,-1.26 0.97,-2.24 2.11,-2.24 0.63,0 1.08,0.34 1.33,0.65 z"
         id="path3512" /></g>    <g
       style="font-style:normal;font-variant:normal;font-weight:normal;font-stretch:normal;letter-spacing:normal;word-spacing:normal;text-anchor:start;fill:none;stroke:#000000;stroke-linecap:butt;stroke-linejoin:miter;stroke-miterlimit:10.43299961;stroke-opacity:1;stroke-dasharray:none;stroke-dashoffset:0"
       ns0:preamble=""
       ns0:text="$\\mathbf{p}_\\textrm{d}$"
       text-anchor="start"
       word-spacing="normal"
       letter-spacing="normal"
       font-size-adjust="none"
       font-stretch="normal"
       font-weight="normal"
       font-variant="normal"
       font-style="normal"
       fill-opacity="1"
       fill-rule="evenodd"
       fill="none"
       stroke-opacity="1"
       stroke-dashoffset="0"
       stroke-dasharray="none"
       stroke-miterlimit="10.433"
       stroke-linejoin="miter"
       stroke-linecap="butt"
       stroke="black"
       xml:space="preserve"
       transform="matrix(2.5,0,0,-2.5,-378.57575,2016.2711)"
       id="g3700"><path
         id="path3702"
         fill="black"
         stroke-width="0"
         d="M225.62,707.51 L225.66,707.48 L225.7,707.45 L225.74,707.42 L225.78,707.39 L225.82,707.37 L225.86,707.34 L225.9,707.32 L225.94,707.3 L225.98,707.27 L226.02,707.25 L226.06,707.24 L226.1,707.22 L226.14,707.2 L226.18,707.19 L226.22,707.17 L226.26,707.16 L226.31,707.15 L226.35,707.13 L226.42,707.11 L226.5,707.1 L226.58,707.09 L226.66,707.08 L226.74,707.07 L226.82,707.07 L226.89,707.07 L226.79,707.42 C226.65,707.42,226.18,707.42,225.73,707.96 C225.62,708.09,225.62,708.1,225.62,708.29 V710.39 C225.62,710.58,225.63,710.59,225.77,710.73 C226.17,711.14,226.68,711.2,226.9,711.2 C227.57,711.2,228.13,710.59,228.13,709.34 C228.13,707.94,227.43,707.42,226.79,707.42 L226.89,707.07 C228.39,707.07,229.4,707.96,229.4,709.34 C229.4,710.66,228.5,711.59,227.06,711.59 C226.32,711.59,225.79,711.29,225.56,711.11 V711.59 L223.8,711.52 V711.05 C224.42,711.05,224.49,711.05,224.49,710.67 V705.66 H223.8 V705.2 C224.08,705.21,224.68,705.23,225.05,705.23 C225.44,705.23,226.03,705.21,226.31,705.2 V705.66 H225.62 Z " /><path
         id="path3704"
         fill="black"
         stroke-width="0"
         d="M233.58,704.18 V703.53 L235.04,703.64 V703.95 C234.34,703.95,234.26,704.02,234.26,704.5 V710.53 L232.83,710.42 V710.11 C233.53,710.11,233.61,710.04,233.61,709.56 V707.41 C233.32,707.77,232.89,708.03,232.35,708.03 L232.39,707.81 C232.74,707.81,233.16,707.66,233.47,707.21 C233.58,707.04,233.58,707.03,233.58,706.85 H233.58 V704.81 C233.58,704.63,233.58,704.61,233.47,704.44 C233.17,703.97,232.72,703.75,232.29,703.75 C231.85,703.75,231.49,704.01,231.25,704.38 C230.99,704.79,230.96,705.36,230.96,705.76 C230.96,706.13,230.98,706.73,231.27,707.17 C231.48,707.48,231.86,707.81,232.39,707.81 L232.35,708.03 C231.18,708.03,230.13,707.05,230.13,705.77 C230.13,704.51,231.11,703.53,232.24,703.53 C232.88,703.53,233.33,703.87,233.58,704.18 Z " /></g>    <g
       id="g3557"
       transform="matrix(2.5,0,0,-2.5,-326.46236,2007.4161)"
       xml:space="preserve"
       stroke="black"
       stroke-linecap="butt"
       stroke-linejoin="miter"
       stroke-miterlimit="10.433"
       stroke-dasharray="none"
       stroke-dashoffset="0"
       stroke-opacity="1"
       fill="none"
       fill-rule="evenodd"
       fill-opacity="1"
       font-style="normal"
       font-variant="normal"
       font-weight="normal"
       font-stretch="normal"
       font-size-adjust="none"
       letter-spacing="normal"
       word-spacing="normal"
       text-anchor="start"
       ns0:text="$\\mathbf{\\widetilde{q}}$"
       ns0:preamble=""
       style="font-style:normal;font-variant:normal;font-weight:normal;font-stretch:normal;letter-spacing:normal;word-spacing:normal;text-anchor:start;fill:none;stroke:#000000;stroke-linecap:butt;stroke-linejoin:miter;stroke-miterlimit:10.43299961;stroke-opacity:1;stroke-dasharray:none;stroke-dashoffset:0"><path
         d="M229.07,714.44 L228.98,714.36 L228.89,714.29 L228.79,714.22 L228.7,714.15 L228.6,714.09 L228.51,714.03 L228.41,713.98 L228.32,713.93 L228.27,713.91 L228.22,713.89 L228.17,713.87 L228.12,713.85 L228.08,713.83 L228.03,713.81 L227.98,713.8 L227.93,713.78 L227.88,713.77 L227.84,713.76 L227.79,713.75 L227.74,713.74 L227.69,713.74 L227.64,713.73 L227.6,713.73 L227.55,713.73 C227.15,713.73,226.86,713.9,226.51,714.1 C226.23,714.27,225.92,714.44,225.52,714.44 C225.27,714.44,225.01,714.36,224.79,714.26 C224.59,714.16,224.39,714.05,224.23,713.91 L223.69,713.47 L223.83,713.3 C224.32,713.71,224.84,714.01,225.35,714.01 C225.75,714.01,226.04,713.84,226.38,713.64 C226.67,713.47,226.98,713.3,227.38,713.3 C227.63,713.3,227.89,713.38,228.1,713.48 C228.3,713.58,228.5,713.69,228.67,713.83 L229.21,714.27 Z "
         stroke-width="0"
         fill="black"
         id="path3559" /><path
         d="M227.79,710.81 L227.76,710.86 L227.72,710.9 L227.69,710.94 L227.65,710.98 L227.61,711.02 L227.57,711.06 L227.53,711.1 L227.49,711.14 L227.45,711.17 L227.41,711.21 L227.36,711.24 L227.32,711.27 L227.27,711.3 L227.23,711.33 L227.18,711.36 L227.13,711.39 L227.08,711.41 L227.03,711.43 L226.98,711.45 L226.93,711.48 L226.88,711.49 L226.83,711.51 L226.78,711.53 L226.72,711.54 L226.67,711.55 L226.62,711.56 L226.56,711.57 L226.51,711.58 L226.45,711.59 L226.4,711.59 L226.34,711.59 L226.29,711.59 C224.84,711.59,223.81,710.71,223.81,709.33 C223.81,707.93,224.82,707.07,226.2,707.07 L226.3,707.42 C225.68,707.42,225.08,708,225.08,709.32 C225.08,710.73,225.82,711.2,226.42,711.2 C227.17,711.2,227.65,710.41,227.65,709.92 V708.54 C227.65,708.36,227.65,708.33,227.5,708.12 C227.1,707.53,226.6,707.42,226.3,707.42 L226.2,707.07 C226.68,707.07,227.13,707.2,227.59,707.6 V705.66 H226.9 V705.2 C227.18,705.21,227.78,705.23,228.16,705.23 C228.55,705.23,229.13,705.21,229.41,705.2 V705.66 H228.73 V711.59 H228.32 Z "
         stroke-width="0"
         fill="black"
         id="path3561" /></g>  </g>
  <g
     style="font-style:normal;font-variant:normal;font-weight:normal;font-stretch:normal;letter-spacing:normal;word-spacing:normal;text-anchor:start;fill:none;stroke:#000000;stroke-linecap:butt;stroke-linejoin:miter;stroke-miterlimit:10.43299961;stroke-opacity:1;stroke-dasharray:none;stroke-dashoffset:0"
     id="g5259"
     transform="matrix(3,0,0,-3,-671.52,2398.8382)"
     xml:space="preserve"
     stroke-miterlimit="10.433"
     font-style="normal"
     font-variant="normal"
     font-weight="normal"
     font-stretch="normal"
     font-size-adjust="none"
     letter-spacing="normal"
     word-spacing="normal"
     ns0:text="$R,t$"
     ns0:preamble=""><path
       style="fill:#000000;stroke-width:0"
       inkscape:connector-curvature="0"
       d="m 228.6,710.5 0.09,0.02 0.1,0.03 0.09,0.03 0.1,0.03 0.09,0.03 0.1,0.03 0.1,0.04 0.09,0.04 0.1,0.05 0.09,0.04 0.09,0.05 0.09,0.05 0.09,0.05 0.08,0.06 0.09,0.06 0.08,0.06 0.07,0.06 0.08,0.06 0.07,0.07 0.07,0.07 0.06,0.07 0.06,0.07 0.05,0.08 0.05,0.08 0.05,0.08 0.04,0.08 0.03,0.08 0.03,0.09 0.02,0.09 0.02,0.09 0.01,0.09 0,0.09 c 0,0.85 -0.89,1.49 -2.19,1.49 h -2.84 c -0.2,0 -0.29,0 -0.29,-0.2 0,-0.11 0.09,-0.11 0.28,-0.11 0.02,0 0.21,0 0.38,-0.02 0.18,-0.02 0.27,-0.03 0.27,-0.16 0,-0.04 -0.01,-0.07 -0.04,-0.19 l -1.34,-5.33 c -0.1,-0.39 -0.11,-0.47 -0.9,-0.47 -0.18,0 -0.27,0 -0.27,-0.2 0,-0.11 0.12,-0.11 0.14,-0.11 0.28,0 0.97,0.04 1.25,0.04 0.28,0 0.99,-0.04 1.27,-0.04 0.08,0 0.2,0 0.2,0.2 0,0.11 -0.09,0.11 -0.28,0.11 -0.37,0 -0.65,0 -0.65,0.18 0,0.06 0.02,0.11 0.03,0.17 l 0.66,2.63 h 1.18 l -0.01,0.22 h -1.11 l 0.64,2.59 c 0.06,0.24 0.09,0.34 0.28,0.37 0.09,0.01 0.41,0.01 0.61,0.01 0.71,0 1.81,0 1.81,-0.98 0,-0.34 -0.16,-1.03 -0.55,-1.41 -0.26,-0.26 -0.78,-0.58 -1.68,-0.58 l 0.01,-0.22 c 0.91,0 1.09,-0.55 1.09,-0.9 0,-0.15 -0.08,-0.46 -0.14,-0.69 -0.07,-0.27 -0.16,-0.64 -0.16,-0.84 0,-1.07 1.19,-1.07 1.32,-1.07 0.85,0 1.19,1 1.19,1.14 0,0.12 -0.11,0.12 -0.12,0.12 -0.08,0 -0.11,-0.07 -0.12,-0.14 -0.25,-0.74 -0.68,-0.91 -0.91,-0.91 -0.33,0 -0.4,0.22 -0.4,0.61 0,0.31 0.06,0.82 0.1,1.13 0.02,0.14 0.04,0.33 0.04,0.47 0,0.76 -0.67,1.07 -0.93,1.17 z"
       id="path5261" /><path
       style="fill:#000000;stroke-width:0"
       inkscape:connector-curvature="0"
       d="m 233.1,707.14 0,0.06 -0.01,0.05 0,0.06 -0.01,0.06 0,0.05 -0.01,0.05 -0.01,0.06 -0.01,0.04 -0.01,0.05 -0.01,0.05 -0.02,0.04 -0.01,0.04 -0.02,0.04 -0.02,0.04 -0.02,0.04 -0.02,0.03 -0.02,0.04 -0.02,0.03 -0.02,0.02 -0.03,0.03 -0.02,0.03 -0.03,0.02 -0.03,0.02 -0.03,0.02 -0.03,0.01 -0.03,0.02 -0.03,0.01 -0.03,0.01 -0.04,0.01 -0.03,0 -0.04,0.01 -0.03,0 c -0.33,0 -0.53,-0.25 -0.53,-0.53 0,-0.27 0.2,-0.53 0.53,-0.53 0.12,0 0.25,0.04 0.35,0.13 0.03,0.02 0.04,0.03 0.05,0.03 0.01,0 0.02,-0.01 0.02,-0.14 0,-0.74 -0.35,-1.34 -0.68,-1.66 -0.11,-0.11 -0.11,-0.13 -0.11,-0.16 0,-0.07 0.05,-0.11 0.1,-0.11 0.11,0 0.91,0.76 0.91,1.93 z"
       id="path5263" /><path
       style="fill:#000000;stroke-width:0"
       inkscape:connector-curvature="0"
       d="m 237.55,711.1 h 0.93 c 0.2,0 0.3,0 0.3,0.2 0,0.11 -0.1,0.11 -0.28,0.11 h -0.87 c 0.36,1.41 0.41,1.61 0.41,1.67 0,0.16 -0.13,0.26 -0.29,0.26 -0.03,0 -0.31,-0.01 -0.4,-0.35 l -0.39,-1.58 h -0.94 c -0.19,0 -0.29,0 -0.29,-0.19 0,-0.12 0.08,-0.12 0.28,-0.12 h 0.87 c -0.72,-2.82 -0.76,-2.99 -0.76,-3.17 0,-0.54 0.38,-0.91 0.92,-0.91 1.01,0 1.58,1.45 1.58,1.53 0,0.1 -0.08,0.1 -0.12,0.1 -0.09,0 -0.1,-0.04 -0.15,-0.14 -0.42,-1.04 -0.95,-1.28 -1.29,-1.28 -0.21,0 -0.31,0.13 -0.31,0.46 0,0.24 0.02,0.31 0.06,0.48 z"
       id="path5265" /></g>  <g
     style="font-style:normal;font-variant:normal;font-weight:normal;font-stretch:normal;letter-spacing:normal;word-spacing:normal;text-anchor:start;fill:none;stroke:#000000;stroke-linecap:butt;stroke-linejoin:miter;stroke-miterlimit:10.43299961;stroke-opacity:1;stroke-dasharray:none;stroke-dashoffset:0"
     id="g7222"
     transform="matrix(2,0,0,-2,-159.11076,1703.0855)"
     xml:space="preserve"
     stroke-miterlimit="10.433"
     font-style="normal"
     font-variant="normal"
     font-weight="normal"
     font-stretch="normal"
     font-size-adjust="none"
     letter-spacing="normal"
     word-spacing="normal"
     ns0:text="$x_w$"
     ns0:preamble=""><path
       style="fill:#000000;stroke-width:0"
       inkscape:connector-curvature="0"
       d="m 226.76,710.12 0,0.03 0.01,0.03 0.01,0.03 0.01,0.04 0.01,0.04 0.01,0.04 0.01,0.04 0.02,0.05 0.01,0.04 0.02,0.05 0.02,0.05 0.02,0.05 0.02,0.05 0.03,0.05 0.02,0.05 0.03,0.05 0.03,0.05 0.03,0.04 0.03,0.05 0.04,0.04 0.04,0.05 0.04,0.04 0.04,0.04 0.04,0.03 0.05,0.03 0.05,0.03 0.02,0.01 0.03,0.02 0.02,0.01 0.03,0.01 0.03,0.01 0.03,0 0.03,0.01 0.02,0.01 0.04,0 0.03,0 0.03,0.01 0.03,0 c 0.05,0 0.29,0 0.5,-0.13 -0.28,-0.05 -0.48,-0.3 -0.48,-0.54 0,-0.16 0.11,-0.35 0.38,-0.35 0.22,0 0.54,0.18 0.54,0.58 0,0.52 -0.59,0.66 -0.93,0.66 -0.58,0 -0.93,-0.53 -1.04,-0.76 -0.25,0.66 -0.79,0.76 -1.08,0.76 -1.03,0 -1.6,-1.29 -1.6,-1.53 0,-0.1 0.1,-0.1 0.12,-0.1 0.08,0 0.11,0.02 0.13,0.11 0.34,1.05 0.99,1.3 1.33,1.3 0.19,0 0.54,-0.09 0.54,-0.67 0,-0.31 -0.17,-0.97 -0.54,-2.36 -0.16,-0.62 -0.51,-1.04 -0.94,-1.04 -0.06,0 -0.29,0 -0.5,0.13 0.25,0.05 0.47,0.26 0.47,0.54 0,0.27 -0.22,0.35 -0.37,0.35 -0.3,0 -0.55,-0.26 -0.55,-0.58 0,-0.46 0.5,-0.65 0.94,-0.65 0.65,0 1.01,0.69 1.04,0.75 0.12,-0.37 0.48,-0.75 1.07,-0.75 1.03,0 1.6,1.28 1.6,1.53 0,0.1 -0.09,0.1 -0.12,0.1 -0.09,0 -0.11,-0.05 -0.13,-0.11 -0.33,-1.07 -1.01,-1.31 -1.33,-1.31 -0.38,0 -0.54,0.32 -0.54,0.66 0,0.22 0.06,0.44 0.17,0.87 z"
       id="path7224" /><path
       style="fill:#000000;stroke-width:0"
       inkscape:connector-curvature="0"
       d="m 232.79,707.85 0,0.02 0.01,0.02 0,0.02 0.01,0.02 0,0.02 0.01,0.02 0.01,0.04 0.01,0.04 0.01,0.05 0.01,0.04 0.01,0.02 0,0.02 0.01,0.03 0,0.02 0.01,0.02 0,0.01 0.01,0.02 0,0.02 0,0.02 0.01,0.01 0,0.01 0,0.02 0.01,0.01 0,0.01 0,0.01 0,0.01 0,0 0,0 0,0 0,0.01 c 0,0.13 -0.11,0.22 -0.23,0.22 -0.13,0 -0.26,-0.09 -0.3,-0.2 -0.02,-0.06 -0.09,-0.35 -0.14,-0.52 -0.09,-0.4 -0.09,-0.42 -0.2,-0.81 -0.09,-0.38 -0.1,-0.43 -0.11,-0.63 0.03,-0.14 -0.03,-0.28 -0.2,-0.48 -0.09,-0.12 -0.23,-0.23 -0.46,-0.23 -0.27,0 -0.63,0.09 -0.63,0.64 0,0.35 0.2,0.87 0.34,1.22 0.11,0.31 0.14,0.37 0.14,0.49 0,0.33 -0.28,0.59 -0.66,0.59 -0.7,0 -1.02,-0.95 -1.02,-1.07 0,-0.09 0.1,-0.09 0.12,-0.09 0.1,0 0.11,0.04 0.13,0.11 0.17,0.58 0.47,0.85 0.75,0.85 0.12,0 0.17,-0.07 0.17,-0.24 0,-0.16 -0.06,-0.31 -0.09,-0.4 -0.4,-1.02 -0.4,-1.16 -0.4,-1.37 0,-0.82 0.74,-0.93 1.12,-0.93 0.13,0 0.47,0 0.79,0.47 0.16,-0.32 0.54,-0.47 0.97,-0.47 0.61,0 0.92,0.54 1.06,0.82 0.3,0.59 0.49,1.46 0.49,1.78 0,0.52 -0.3,0.55 -0.35,0.55 -0.18,0 -0.38,-0.19 -0.38,-0.37 0,-0.12 0.07,-0.18 0.12,-0.22 0.17,-0.14 0.26,-0.33 0.26,-0.56 0,-0.09 -0.29,-1.8 -1.18,-1.8 -0.56,0 -0.56,0.5 -0.56,0.62 0,0.18 0.03,0.29 0.12,0.69 z"
       id="path7226" /></g>  <g
     ns0:preamble=""
     ns0:text="$y_w$"
     word-spacing="normal"
     letter-spacing="normal"
     font-size-adjust="none"
     font-stretch="normal"
     font-weight="normal"
     font-variant="normal"
     font-style="normal"
     stroke-miterlimit="10.433"
     xml:space="preserve"
     transform="matrix(2,0,0,-2,-152.11076,1671.2283)"
     id="g7380"
     style="font-style:normal;font-variant:normal;font-weight:normal;font-stretch:normal;letter-spacing:normal;word-spacing:normal;text-anchor:start;fill:none;stroke:#000000;stroke-linecap:butt;stroke-linejoin:miter;stroke-miterlimit:10.43299961;stroke-opacity:1;stroke-dasharray:none;stroke-dashoffset:0"><path
       id="path7382"
       d="m 228.27,710.91 0,0.01 0,0 0,0.01 0,0 0.01,0.02 0,0.01 0,0.01 0.01,0.01 0,0.01 0,0 0,0.01 0,0.01 0.01,0.01 0,0.01 0,0 0,0.01 0,0 0,0.01 0,0.01 0,0 0,0.01 0,0 0.01,0.01 0,0.01 0,0.01 0,0.01 0,0.01 0,0.01 0,0 0,0.01 c 0,0.18 -0.14,0.27 -0.29,0.27 -0.1,0 -0.26,-0.06 -0.35,-0.21 -0.02,-0.05 -0.1,-0.36 -0.14,-0.54 -0.07,-0.26 -0.14,-0.52 -0.2,-0.79 l -0.45,-1.79 c -0.03,-0.15 -0.46,-0.85 -1.12,-0.85 -0.51,0 -0.62,0.44 -0.62,0.81 0,0.46 0.17,1.07 0.51,1.95 0.16,0.4 0.2,0.51 0.2,0.71 0,0.45 -0.32,0.82 -0.82,0.82 -0.94,0 -1.31,-1.44 -1.31,-1.53 0,-0.1 0.1,-0.1 0.12,-0.1 0.1,0 0.11,0.02 0.16,0.18 0.27,0.93 0.67,1.23 1,1.23 0.08,0 0.25,0 0.25,-0.32 0,-0.25 -0.1,-0.51 -0.17,-0.7 -0.39,-1.05 -0.57,-1.62 -0.57,-2.08 0,-0.89 0.62,-1.18 1.21,-1.18 0.39,0 0.73,0.16 1.01,0.44 -0.13,-0.51 -0.25,-1 -0.65,-1.53 -0.26,-0.34 -0.64,-0.62 -1.1,-0.62 -0.13,0 -0.58,0.03 -0.75,0.41 0.16,0 0.29,0 0.43,0.12 0.1,0.09 0.19,0.22 0.19,0.41 0,0.31 -0.26,0.35 -0.36,0.35 -0.23,0 -0.56,-0.16 -0.56,-0.65 0,-0.49 0.44,-0.86 1.05,-0.86 1.03,0 2.05,0.9 2.33,2.02 z"
       inkscape:connector-curvature="0"
       style="fill:#000000;stroke-width:0" /><path
       id="path7384"
       d="m 231.98,707.85 0,0.02 0.01,0.02 0,0.02 0.01,0.02 0.01,0.02 0,0.02 0.01,0.04 0.01,0.04 0.01,0.05 0.01,0.04 0.01,0.02 0,0.02 0.01,0.03 0,0.02 0.01,0.02 0,0.01 0.01,0.02 0,0.02 0.01,0.02 0,0.01 0,0.01 0,0.02 0.01,0.01 0,0.01 0,0.01 0,0.01 0,0 0,0 0,0 0,0.01 c 0,0.13 -0.11,0.22 -0.23,0.22 -0.13,0 -0.26,-0.09 -0.3,-0.2 -0.02,-0.06 -0.09,-0.35 -0.14,-0.52 -0.09,-0.4 -0.09,-0.42 -0.2,-0.81 -0.09,-0.38 -0.1,-0.43 -0.11,-0.63 0.03,-0.14 -0.03,-0.28 -0.19,-0.48 -0.09,-0.12 -0.23,-0.23 -0.47,-0.23 -0.27,0 -0.63,0.09 -0.63,0.64 0,0.35 0.2,0.87 0.34,1.22 0.11,0.31 0.14,0.37 0.14,0.49 0,0.33 -0.28,0.59 -0.66,0.59 -0.7,0 -1.02,-0.95 -1.02,-1.07 0,-0.09 0.1,-0.09 0.12,-0.09 0.1,0 0.11,0.04 0.13,0.11 0.17,0.58 0.47,0.85 0.75,0.85 0.12,0 0.17,-0.07 0.17,-0.24 0,-0.16 -0.06,-0.31 -0.09,-0.4 -0.4,-1.02 -0.4,-1.16 -0.4,-1.37 0,-0.82 0.75,-0.93 1.12,-0.93 0.13,0 0.47,0 0.79,0.47 0.16,-0.32 0.54,-0.47 0.97,-0.47 0.62,0 0.92,0.54 1.06,0.82 0.3,0.59 0.49,1.46 0.49,1.78 0,0.52 -0.3,0.55 -0.35,0.55 -0.18,0 -0.38,-0.19 -0.38,-0.37 0,-0.12 0.08,-0.18 0.12,-0.22 0.17,-0.14 0.26,-0.33 0.26,-0.56 0,-0.09 -0.29,-1.8 -1.18,-1.8 -0.56,0 -0.56,0.5 -0.56,0.62 0,0.18 0.03,0.29 0.13,0.69 z"
       inkscape:connector-curvature="0"
       style="fill:#000000;stroke-width:0" /></g>  <g
     style="font-style:normal;font-variant:normal;font-weight:normal;font-stretch:normal;letter-spacing:normal;word-spacing:normal;text-anchor:start;fill:none;stroke:#000000;stroke-linecap:butt;stroke-linejoin:miter;stroke-miterlimit:10.43299961;stroke-opacity:1;stroke-dasharray:none;stroke-dashoffset:0"
     id="g7544"
     transform="matrix(2,0,0,-2,-175.68219,1651.2283)"
     xml:space="preserve"
     stroke-miterlimit="10.433"
     font-style="normal"
     font-variant="normal"
     font-weight="normal"
     font-stretch="normal"
     font-size-adjust="none"
     letter-spacing="normal"
     word-spacing="normal"
     ns0:text="$z_w$"
     ns0:preamble=""><path
       style="fill:#000000;stroke-width:0"
       inkscape:connector-curvature="0"
       d="m 224.76,707.95 0.04,0.05 0.05,0.05 0.05,0.05 0.05,0.05 0.04,0.05 0.04,0.04 0.05,0.04 0.04,0.05 0.04,0.04 0.04,0.04 0.03,0.03 0.04,0.04 0.04,0.04 0.03,0.03 0.07,0.07 0.07,0.06 0.07,0.06 0.06,0.06 0.07,0.06 0.13,0.11 0.06,0.05 0.07,0.06 c 0,0.01 0.62,0.54 0.97,0.9 0.95,0.92 1.17,1.4 1.17,1.44 0,0.1 -0.09,0.1 -0.11,0.1 -0.07,0 -0.1,-0.02 -0.15,-0.11 -0.3,-0.48 -0.51,-0.64 -0.75,-0.64 -0.23,0 -0.36,0.15 -0.5,0.32 -0.19,0.23 -0.36,0.43 -0.69,0.43 -0.75,0 -1.2,-0.93 -1.2,-1.14 0,-0.05 0.03,-0.11 0.11,-0.11 0.09,0 0.11,0.05 0.13,0.11 0.19,0.46 0.77,0.47 0.85,0.47 0.21,0 0.4,-0.07 0.63,-0.15 0.39,-0.15 0.5,-0.15 0.76,-0.15 -0.36,-0.43 -1.19,-1.14 -1.38,-1.3 l -0.9,-0.83 c -0.67,-0.67 -1.02,-1.24 -1.02,-1.31 0,-0.09 0.1,-0.09 0.12,-0.09 0.08,0 0.1,0.02 0.16,0.13 0.23,0.34 0.53,0.61 0.84,0.61 0.23,0 0.33,-0.09 0.58,-0.38 0.17,-0.21 0.35,-0.36 0.64,-0.36 0.98,0 1.56,1.26 1.56,1.53 0,0.04 -0.04,0.1 -0.12,0.1 -0.09,0 -0.11,-0.06 -0.14,-0.13 -0.23,-0.65 -0.86,-0.84 -1.19,-0.84 -0.2,0 -0.38,0.06 -0.59,0.13 -0.34,0.13 -0.49,0.17 -0.7,0.17 -0.02,0 -0.17,0 -0.26,-0.03 z"
       id="path7546" /><path
       style="fill:#000000;stroke-width:0"
       inkscape:connector-curvature="0"
       d="m 231.73,707.85 0,0.02 0.01,0.02 0,0.02 0.01,0.02 0,0.02 0.01,0.02 0.01,0.04 0.01,0.04 0.01,0.05 0.01,0.04 0.01,0.02 0,0.02 0.01,0.03 0,0.02 0.01,0.02 0,0.01 0.01,0.02 0,0.02 0,0.02 0.01,0.01 0,0.01 0,0.02 0.01,0.01 0,0.01 0,0.01 0,0.01 0,0 0,0 0,0 0,0.01 c 0,0.13 -0.11,0.22 -0.23,0.22 -0.13,0 -0.26,-0.09 -0.3,-0.2 -0.02,-0.06 -0.09,-0.35 -0.14,-0.52 -0.09,-0.4 -0.09,-0.42 -0.2,-0.81 -0.09,-0.38 -0.1,-0.43 -0.11,-0.63 0.03,-0.14 -0.03,-0.28 -0.2,-0.48 -0.09,-0.12 -0.23,-0.23 -0.46,-0.23 -0.27,0 -0.63,0.09 -0.63,0.64 0,0.35 0.2,0.87 0.34,1.22 0.11,0.31 0.14,0.37 0.14,0.49 0,0.33 -0.28,0.59 -0.66,0.59 -0.7,0 -1.02,-0.95 -1.02,-1.07 0,-0.09 0.1,-0.09 0.12,-0.09 0.1,0 0.11,0.04 0.13,0.11 0.17,0.58 0.47,0.85 0.75,0.85 0.12,0 0.17,-0.07 0.17,-0.24 0,-0.16 -0.06,-0.31 -0.1,-0.4 -0.39,-1.02 -0.39,-1.16 -0.39,-1.37 0,-0.82 0.74,-0.93 1.12,-0.93 0.13,0 0.47,0 0.79,0.47 0.16,-0.32 0.54,-0.47 0.96,-0.47 0.62,0 0.93,0.54 1.07,0.82 0.3,0.59 0.49,1.46 0.49,1.78 0,0.52 -0.3,0.55 -0.35,0.55 -0.18,0 -0.38,-0.19 -0.38,-0.37 0,-0.12 0.07,-0.18 0.12,-0.22 0.17,-0.14 0.26,-0.33 0.26,-0.56 0,-0.09 -0.29,-1.8 -1.18,-1.8 -0.56,0 -0.56,0.5 -0.56,0.62 0,0.18 0.03,0.29 0.12,0.69 z"
       id="path7548" /></g>  <g
     ns0:preamble=""
     ns0:text="$x_c$"
     word-spacing="normal"
     letter-spacing="normal"
     font-size-adjust="none"
     font-stretch="normal"
     font-weight="normal"
     font-variant="normal"
     font-style="normal"
     stroke-miterlimit="10.433"
     xml:space="preserve"
     transform="matrix(2,0,0,-2,-365.68219,1691.9426)"
     id="g7714"
     style="font-style:normal;font-variant:normal;font-weight:normal;font-stretch:normal;letter-spacing:normal;word-spacing:normal;text-anchor:start;fill:none;stroke:#000000;stroke-linecap:butt;stroke-linejoin:miter;stroke-miterlimit:10.43299961;stroke-opacity:1;stroke-dasharray:none;stroke-dashoffset:0"><path
       id="path7716"
       d="m 226.76,710.12 0,0.03 0.01,0.03 0.01,0.03 0.01,0.04 0.01,0.04 0.01,0.04 0.01,0.04 0.02,0.05 0.01,0.04 0.02,0.05 0.02,0.05 0.02,0.05 0.02,0.05 0.03,0.05 0.02,0.05 0.03,0.05 0.03,0.05 0.03,0.04 0.03,0.05 0.04,0.04 0.04,0.05 0.04,0.04 0.04,0.04 0.04,0.03 0.05,0.03 0.05,0.03 0.02,0.01 0.03,0.02 0.02,0.01 0.03,0.01 0.03,0.01 0.03,0 0.03,0.01 0.02,0.01 0.04,0 0.03,0 0.03,0.01 0.03,0 c 0.05,0 0.29,0 0.5,-0.13 -0.28,-0.05 -0.48,-0.3 -0.48,-0.54 0,-0.16 0.11,-0.35 0.38,-0.35 0.22,0 0.54,0.18 0.54,0.58 0,0.52 -0.59,0.66 -0.93,0.66 -0.58,0 -0.93,-0.53 -1.04,-0.76 -0.25,0.66 -0.79,0.76 -1.08,0.76 -1.03,0 -1.6,-1.29 -1.6,-1.53 0,-0.1 0.1,-0.1 0.12,-0.1 0.08,0 0.11,0.02 0.13,0.11 0.34,1.05 0.99,1.3 1.33,1.3 0.19,0 0.54,-0.09 0.54,-0.67 0,-0.31 -0.17,-0.97 -0.54,-2.36 -0.16,-0.62 -0.51,-1.04 -0.94,-1.04 -0.06,0 -0.29,0 -0.5,0.13 0.25,0.05 0.47,0.26 0.47,0.54 0,0.27 -0.22,0.35 -0.37,0.35 -0.3,0 -0.55,-0.26 -0.55,-0.58 0,-0.46 0.5,-0.65 0.94,-0.65 0.65,0 1.01,0.69 1.04,0.75 0.12,-0.37 0.48,-0.75 1.07,-0.75 1.03,0 1.6,1.28 1.6,1.53 0,0.1 -0.09,0.1 -0.12,0.1 -0.09,0 -0.11,-0.05 -0.13,-0.11 -0.33,-1.07 -1.01,-1.31 -1.33,-1.31 -0.38,0 -0.54,0.32 -0.54,0.66 0,0.22 0.06,0.44 0.17,0.87 z"
       inkscape:connector-curvature="0"
       style="fill:#000000;stroke-width:0" /><path
       id="path7718"
       d="m 232.18,708.29 -0.03,0 -0.02,-0.01 -0.02,0 -0.02,-0.01 -0.02,-0.01 -0.02,0 -0.02,-0.01 -0.01,-0.01 -0.02,-0.01 -0.02,-0.01 -0.01,-0.01 -0.02,-0.02 -0.01,-0.01 -0.01,-0.01 -0.01,-0.01 -0.02,-0.02 -0.01,-0.01 -0.01,-0.02 0,-0.01 -0.01,-0.02 -0.01,-0.01 -0.01,-0.02 0,-0.01 -0.01,-0.02 0,-0.01 -0.01,-0.02 0,-0.01 0,-0.02 -0.01,-0.01 0,-0.02 0,-0.01 0,-0.01 c 0,-0.19 0.15,-0.26 0.27,-0.26 0.16,0 0.4,0.11 0.4,0.44 0,0.48 -0.54,0.61 -0.92,0.61 -1.04,0 -2.01,-0.96 -2.01,-1.93 0,-0.6 0.42,-1.21 1.29,-1.21 1.17,0 1.72,0.69 1.72,0.79 0,0.04 -0.06,0.12 -0.11,0.12 -0.05,0 -0.06,-0.02 -0.12,-0.07 -0.54,-0.64 -1.35,-0.64 -1.48,-0.64 -0.5,0 -0.72,0.34 -0.72,0.77 0,0.2 0.09,0.96 0.46,1.44 0.26,0.34 0.62,0.53 0.97,0.53 0.1,0 0.43,-0.01 0.61,-0.21 z"
       inkscape:connector-curvature="0"
       style="fill:#000000;stroke-width:0" /></g>  <g
     style="font-style:normal;font-variant:normal;font-weight:normal;font-stretch:normal;letter-spacing:normal;word-spacing:normal;text-anchor:start;fill:none;stroke:#000000;stroke-linecap:butt;stroke-linejoin:miter;stroke-miterlimit:10.43299961;stroke-opacity:1;stroke-dasharray:none;stroke-dashoffset:0"
     id="g7890"
     transform="matrix(2,0,0,-2,-392.11076,1710.5141)"
     xml:space="preserve"
     stroke-miterlimit="10.433"
     font-style="normal"
     font-variant="normal"
     font-weight="normal"
     font-stretch="normal"
     font-size-adjust="none"
     letter-spacing="normal"
     word-spacing="normal"
     ns0:text="$y_c$"
     ns0:preamble=""><path
       style="fill:#000000;stroke-width:0"
       inkscape:connector-curvature="0"
       d="m 228.27,710.91 0,0.01 0,0 0,0.01 0,0 0.01,0.02 0,0.01 0,0.01 0.01,0.01 0,0.01 0,0 0,0.01 0,0.01 0.01,0.01 0,0.01 0,0 0,0.01 0,0 0,0.01 0,0.01 0,0 0,0.01 0,0 0.01,0.01 0,0.01 0,0.01 0,0.01 0,0.01 0,0.01 0,0 0,0.01 c 0,0.18 -0.14,0.27 -0.29,0.27 -0.1,0 -0.26,-0.06 -0.35,-0.21 -0.02,-0.05 -0.1,-0.36 -0.14,-0.54 -0.07,-0.26 -0.14,-0.52 -0.2,-0.79 l -0.45,-1.79 c -0.03,-0.15 -0.46,-0.85 -1.12,-0.85 -0.51,0 -0.62,0.44 -0.62,0.81 0,0.46 0.17,1.07 0.51,1.95 0.16,0.4 0.2,0.51 0.2,0.71 0,0.45 -0.32,0.82 -0.82,0.82 -0.94,0 -1.31,-1.44 -1.31,-1.53 0,-0.1 0.1,-0.1 0.12,-0.1 0.1,0 0.11,0.02 0.16,0.18 0.27,0.93 0.67,1.23 1,1.23 0.08,0 0.25,0 0.25,-0.32 0,-0.25 -0.1,-0.51 -0.17,-0.7 -0.39,-1.05 -0.57,-1.62 -0.57,-2.08 0,-0.89 0.62,-1.18 1.21,-1.18 0.39,0 0.73,0.16 1.01,0.44 -0.13,-0.51 -0.25,-1 -0.65,-1.53 -0.26,-0.34 -0.64,-0.62 -1.1,-0.62 -0.13,0 -0.58,0.03 -0.75,0.41 0.16,0 0.29,0 0.43,0.12 0.1,0.09 0.19,0.22 0.19,0.41 0,0.31 -0.26,0.35 -0.36,0.35 -0.23,0 -0.56,-0.16 -0.56,-0.65 0,-0.49 0.44,-0.86 1.05,-0.86 1.03,0 2.05,0.9 2.33,2.02 z"
       id="path7892" /><path
       style="fill:#000000;stroke-width:0"
       inkscape:connector-curvature="0"
       d="m 231.37,708.29 -0.03,0 -0.02,-0.01 -0.02,0 -0.02,-0.01 -0.02,-0.01 -0.02,0 -0.02,-0.01 -0.01,-0.01 -0.02,-0.01 -0.02,-0.01 -0.01,-0.01 -0.02,-0.02 -0.01,-0.01 -0.01,-0.01 -0.01,-0.01 -0.01,-0.02 -0.01,-0.01 -0.01,-0.02 -0.01,-0.01 -0.01,-0.02 -0.01,-0.01 -0.01,-0.02 0,-0.01 -0.01,-0.02 0,-0.01 -0.01,-0.02 0,-0.01 0,-0.02 -0.01,-0.01 0,-0.02 0,-0.01 0,-0.01 c 0,-0.19 0.15,-0.26 0.27,-0.26 0.16,0 0.4,0.11 0.4,0.44 0,0.48 -0.54,0.61 -0.92,0.61 -1.04,0 -2.01,-0.96 -2.01,-1.93 0,-0.6 0.42,-1.21 1.29,-1.21 1.17,0 1.72,0.69 1.72,0.79 0,0.04 -0.06,0.12 -0.11,0.12 -0.05,0 -0.06,-0.02 -0.11,-0.07 -0.55,-0.64 -1.36,-0.64 -1.49,-0.64 -0.5,0 -0.72,0.34 -0.72,0.77 0,0.2 0.09,0.96 0.46,1.44 0.26,0.34 0.62,0.53 0.97,0.53 0.1,0 0.43,-0.01 0.61,-0.21 z"
       id="path7894" /></g>  <g
     ns0:preamble=""
     ns0:text="$z_c$"
     word-spacing="normal"
     letter-spacing="normal"
     font-size-adjust="none"
     font-stretch="normal"
     font-weight="normal"
     font-variant="normal"
     font-style="normal"
     stroke-miterlimit="10.433"
     xml:space="preserve"
     transform="matrix(2,0,0,-2,-382.11076,1656.9426)"
     id="g8072"
     style="font-style:normal;font-variant:normal;font-weight:normal;font-stretch:normal;letter-spacing:normal;word-spacing:normal;text-anchor:start;fill:none;stroke:#000000;stroke-linecap:butt;stroke-linejoin:miter;stroke-miterlimit:10.43299961;stroke-opacity:1;stroke-dasharray:none;stroke-dashoffset:0"><path
       id="path8074"
       d="m 224.76,707.95 0.04,0.05 0.05,0.05 0.05,0.05 0.05,0.05 0.04,0.05 0.04,0.04 0.05,0.04 0.04,0.05 0.04,0.04 0.04,0.04 0.03,0.03 0.04,0.04 0.04,0.04 0.03,0.03 0.07,0.07 0.07,0.06 0.07,0.06 0.06,0.06 0.07,0.06 0.13,0.11 0.06,0.05 0.07,0.06 c 0,0.01 0.62,0.54 0.97,0.9 0.95,0.92 1.17,1.4 1.17,1.44 0,0.1 -0.09,0.1 -0.11,0.1 -0.07,0 -0.1,-0.02 -0.15,-0.11 -0.3,-0.48 -0.51,-0.64 -0.75,-0.64 -0.23,0 -0.36,0.15 -0.5,0.32 -0.19,0.23 -0.36,0.43 -0.69,0.43 -0.75,0 -1.2,-0.93 -1.2,-1.14 0,-0.05 0.03,-0.11 0.11,-0.11 0.09,0 0.11,0.05 0.13,0.11 0.19,0.46 0.77,0.47 0.85,0.47 0.21,0 0.4,-0.07 0.63,-0.15 0.39,-0.15 0.5,-0.15 0.76,-0.15 -0.36,-0.43 -1.19,-1.14 -1.38,-1.3 l -0.9,-0.83 c -0.67,-0.67 -1.02,-1.24 -1.02,-1.31 0,-0.09 0.1,-0.09 0.12,-0.09 0.08,0 0.1,0.02 0.16,0.13 0.23,0.34 0.53,0.61 0.84,0.61 0.23,0 0.33,-0.09 0.58,-0.38 0.17,-0.21 0.35,-0.36 0.64,-0.36 0.98,0 1.56,1.26 1.56,1.53 0,0.04 -0.04,0.1 -0.12,0.1 -0.09,0 -0.11,-0.06 -0.14,-0.13 -0.23,-0.65 -0.86,-0.84 -1.19,-0.84 -0.2,0 -0.38,0.06 -0.59,0.13 -0.34,0.13 -0.49,0.17 -0.7,0.17 -0.02,0 -0.17,0 -0.26,-0.03 z"
       inkscape:connector-curvature="0"
       style="fill:#000000;stroke-width:0" /><path
       id="path8076"
       d="m 231.12,708.29 -0.03,0 -0.02,-0.01 -0.02,0 -0.02,-0.01 -0.02,-0.01 -0.02,0 -0.02,-0.01 -0.02,-0.01 -0.01,-0.01 -0.02,-0.01 -0.01,-0.01 -0.02,-0.02 -0.01,-0.01 -0.01,-0.01 -0.02,-0.01 -0.01,-0.02 -0.01,-0.01 -0.01,-0.02 -0.01,-0.01 0,-0.02 -0.01,-0.01 -0.01,-0.02 0,-0.01 -0.01,-0.02 0,-0.01 -0.01,-0.02 0,-0.01 -0.01,-0.02 0,-0.01 0,-0.02 0,-0.01 0,-0.01 c 0,-0.19 0.15,-0.26 0.27,-0.26 0.15,0 0.4,0.11 0.4,0.44 0,0.48 -0.54,0.61 -0.92,0.61 -1.05,0 -2.01,-0.96 -2.01,-1.93 0,-0.6 0.41,-1.21 1.29,-1.21 1.17,0 1.72,0.69 1.72,0.79 0,0.04 -0.06,0.12 -0.12,0.12 -0.04,0 -0.05,-0.02 -0.11,-0.07 -0.54,-0.64 -1.35,-0.64 -1.48,-0.64 -0.5,0 -0.73,0.34 -0.73,0.77 0,0.2 0.1,0.96 0.47,1.44 0.26,0.34 0.62,0.53 0.97,0.53 0.1,0 0.43,-0.01 0.61,-0.21 z"
       inkscape:connector-curvature="0"
       style="fill:#000000;stroke-width:0" /></g>  <g
     id="g3205"
     transform="matrix(3,0,0,-3,-544.63905,2150.5728)"
     xml:space="preserve"
     stroke-miterlimit="10.433"
     font-style="normal"
     font-variant="normal"
     font-weight="normal"
     font-stretch="normal"
     font-size-adjust="none"
     letter-spacing="normal"
     word-spacing="normal"
     ns0:text="$\\mathbf{P}$"
     ns0:preamble=""
     style="font-style:normal;font-variant:normal;font-weight:normal;font-stretch:normal;letter-spacing:normal;word-spacing:normal;text-anchor:start;fill:none;stroke:#000000;stroke-linecap:butt;stroke-linejoin:miter;stroke-miterlimit:10.43299961;stroke-opacity:1;stroke-dasharray:none;stroke-dashoffset:0"><path
       style="fill:#000000;stroke-width:0"
       inkscape:connector-curvature="0"
       d="m 226.31,710.12 -0.06,0.41 v 2.94 h 1.34 c 1.49,0 1.49,-0.75 1.49,-1.47 0,-0.7 0,-1.47 -1.5,-1.47 h 0 -1.33 l 0.06,-0.41 h 1.76 c 1.38,0 2.53,0.72 2.53,1.88 0,1.09 -0.98,1.94 -2.63,1.94 h -4.15 v -0.47 h 1.08 v -5.88 h -1.08 v -0.47 c 0.38,0.04 1.35,0.04 1.78,0.04 0.43,0 1.4,0 1.78,-0.04 v 0.47 h -1.07 z"
       id="path3207" /></g>  <g
     style="font-style:normal;font-variant:normal;font-weight:normal;font-stretch:normal;letter-spacing:normal;word-spacing:normal;text-anchor:start;fill:none;stroke:#000000;stroke-linecap:butt;stroke-linejoin:miter;stroke-miterlimit:10.43299961;stroke-opacity:1;stroke-dasharray:none;stroke-dashoffset:0"
     ns0:preamble=""
     ns0:text="$\\mathbf{Q}$"
     text-anchor="start"
     word-spacing="normal"
     letter-spacing="normal"
     font-size-adjust="none"
     font-stretch="normal"
     font-weight="normal"
     font-variant="normal"
     font-style="normal"
     fill-opacity="1"
     fill-rule="evenodd"
     fill="none"
     stroke-opacity="1"
     stroke-dashoffset="0"
     stroke-dasharray="none"
     stroke-miterlimit="10.433"
     stroke-linejoin="miter"
     stroke-linecap="butt"
     stroke="black"
     xml:space="preserve"
     transform="matrix(3,0,0,-3,-441.84983,2202.5883)"
     id="g3405"><path
       id="path3407"
       fill="black"
       stroke-width="0"
       d="M229.32,707.3 L229.47,707.37 L229.61,707.43 L229.75,707.5 L229.88,707.58 L230,707.66 L230.12,707.74 L230.23,707.83 L230.33,707.92 L230.43,708.01 L230.52,708.11 L230.61,708.21 L230.69,708.31 L230.77,708.41 L230.84,708.52 L230.9,708.62 L230.96,708.73 L231.02,708.84 L231.07,708.95 L231.12,709.06 L231.16,709.18 L231.2,709.29 L231.23,709.4 L231.26,709.51 L231.29,709.63 L231.31,709.74 L231.33,709.85 L231.35,709.96 L231.36,710.07 L231.37,710.18 L231.38,710.29 L231.38,710.39 L231.38,710.49 C231.38,712.64,229.94,714.05,227.73,714.05 C225.45,714.05,224.07,712.58,224.07,710.49 C224.07,708.47,225.42,707.02,227.73,707.02 V707.41 C227.18,707.41,227.11,707.73,227.11,707.85 H226.76 C226.76,707.79,226.76,707.68,226.79,707.63 H226.79 C225.56,708.22,225.53,709.73,225.53,710.5 C225.53,710.9,225.53,711.84,225.9,712.55 C226.42,713.5,227.27,713.65,227.72,713.65 C228.26,713.65,229.03,713.45,229.51,712.61 C229.89,711.94,229.92,711.09,229.92,710.5 C229.92,709.95,229.92,708.47,228.96,707.81 C228.74,708.14,228.39,708.66,227.72,708.66 C227.21,708.66,226.76,708.33,226.76,707.85 H227.11 C227.11,708.12,227.4,708.31,227.73,708.31 C228.01,708.31,228.35,708.2,228.55,707.57 H228.55 C228.3,707.46,228,707.41,227.73,707.41 V707.02 C227.95,707.02,228.28,707.03,228.68,707.1 C228.95,705.98,229.15,705.2,230.08,705.2 C231.09,705.2,231.44,706.37,231.44,707.05 C231.44,707.12,231.44,707.3,231.26,707.3 C231.11,707.3,231.09,707.17,231.08,707.1 C231.02,706.73,230.41,706.72,230.24,706.72 C230.01,706.72,229.71,706.72,229.32,707.3 Z " /></g>  <g
     id="g3971"
     transform="matrix(3,0,0,-3,-373.53933,2321.2283)"
     xml:space="preserve"
     stroke="black"
     stroke-linecap="butt"
     stroke-linejoin="miter"
     stroke-miterlimit="10.433"
     stroke-dasharray="none"
     stroke-dashoffset="0"
     stroke-opacity="1"
     fill="none"
     fill-rule="evenodd"
     fill-opacity="1"
     font-style="normal"
     font-variant="normal"
     font-weight="normal"
     font-stretch="normal"
     font-size-adjust="none"
     letter-spacing="normal"
     word-spacing="normal"
     text-anchor="start"
     ns0:text="$\\mathbf{X}$"
     ns0:preamble=""
     style="font-style:normal;font-variant:normal;font-weight:normal;font-stretch:normal;letter-spacing:normal;word-spacing:normal;text-anchor:start;fill:none;stroke:#000000;stroke-linecap:butt;stroke-linejoin:miter;stroke-miterlimit:10.43299961;stroke-opacity:1;stroke-dasharray:none;stroke-dashoffset:0"><path
       d="M228.25,711.07 L229.92,713.26 C230.03,713.4,230.04,713.41,230.39,713.44 C230.62,713.47,230.68,713.47,230.96,713.47 H231.25 V713.94 C230.83,713.91,230.35,713.91,229.92,713.91 C229.53,713.91,228.76,713.91,228.41,713.94 V713.47 C228.59,713.47,228.97,713.47,229.32,713.36 C229.31,713.34,229.26,713.28,229.24,713.25 L227.93,711.52 L226.51,713.47 H227.33 V713.94 C226.92,713.91,225.98,713.91,225.53,713.91 C225.13,713.91,224.27,713.91,223.92,713.94 V713.47 H224.9 L227.1,710.42 L225.09,707.79 C225,707.67,224.98,707.65,224.67,707.62 C224.47,707.6,224.26,707.59,224.06,707.59 H223.77 V707.12 C224.19,707.16,224.68,707.16,225.1,707.16 C225.49,707.16,226.26,707.16,226.62,707.12 V707.59 C226.44,707.59,226.05,707.59,225.7,707.7 C225.71,707.72,225.76,707.78,225.78,707.81 L227.42,709.99 L229.15,707.59 H228.33 V707.12 C228.74,707.16,229.68,707.16,230.13,707.16 C230.53,707.16,231.39,707.16,231.74,707.12 V707.59 H230.76 Z "
       stroke-width="0"
       fill="black"
       id="path3973" /></g>  <g
     style="font-style:normal;font-variant:normal;font-weight:normal;font-stretch:normal;letter-spacing:normal;word-spacing:normal;text-anchor:start;fill:none;stroke:#000000;stroke-linecap:butt;stroke-linejoin:miter;stroke-miterlimit:10.43299961;stroke-opacity:1;stroke-dasharray:none;stroke-dashoffset:0"
     ns0:preamble=""
     ns0:text="$\\mathbf{\\widetilde{x}}$\n"
     word-spacing="normal"
     letter-spacing="normal"
     font-size-adjust="none"
     font-stretch="normal"
     font-weight="normal"
     font-variant="normal"
     font-style="normal"
     stroke-miterlimit="10.433"
     xml:space="preserve"
     transform="matrix(3,0,0,-3,-473.53934,2368.2283)"
     id="g3542"><path
       id="path4160"
       d="m 229.07,714.44 -0.09,-0.08 -0.09,-0.07 -0.1,-0.07 -0.09,-0.07 -0.1,-0.06 -0.09,-0.06 -0.1,-0.05 -0.09,-0.05 -0.05,-0.02 -0.05,-0.02 -0.05,-0.02 -0.05,-0.02 -0.04,-0.02 -0.05,-0.02 -0.05,-0.01 -0.05,-0.02 -0.05,-0.01 -0.04,-0.01 -0.05,-0.01 -0.05,-0.01 -0.05,0 -0.05,-0.01 -0.04,0 -0.05,0 c -0.4,0 -0.69,0.17 -1.04,0.37 -0.28,0.17 -0.59,0.34 -0.99,0.34 -0.25,0 -0.51,-0.08 -0.73,-0.18 -0.2,-0.1 -0.4,-0.21 -0.56,-0.35 l -0.54,-0.44 0.14,-0.17 c 0.49,0.41 1.01,0.71 1.52,0.71 0.4,0 0.69,-0.17 1.03,-0.37 0.29,-0.17 0.6,-0.34 1,-0.34 0.25,0 0.51,0.08 0.72,0.18 0.2,0.1 0.4,0.21 0.57,0.35 l 0.54,0.44 z"
       inkscape:connector-curvature="0"
       style="fill:#000000;stroke-width:0" /><path
       id="path4162"
       d="m 226.87,709.57 1.17,1.29 c 0.13,0.14 0.19,0.21 1.01,0.21 v 0.47 c -0.34,-0.02 -0.86,-0.03 -0.91,-0.03 -0.25,0 -0.75,0.02 -1.03,0.03 v -0.47 c 0.14,0 0.26,-0.02 0.38,-0.09 -0.04,-0.06 -0.04,-0.08 -0.08,-0.12 l -0.83,-0.93 -0.98,1.14 h 0.4 v 0.47 c -0.26,-0.01 -0.89,-0.03 -1.21,-0.03 -0.31,0 -0.76,0.02 -1.09,0.03 v -0.47 h 0.71 l 1.55,-1.83 -1.3,-1.46 c -0.17,-0.19 -0.53,-0.19 -1.01,-0.19 v -0.47 c 0.35,0.03 0.87,0.04 0.92,0.04 0.25,0 0.82,-0.02 1.02,-0.04 v 0.47 c -0.18,0 -0.37,0.05 -0.37,0.11 0,0.01 0,0.02 0.07,0.1 l 0.97,1.08 1.09,-1.29 h -0.39 v -0.47 c 0.26,0.02 0.87,0.04 1.2,0.04 0.32,0 0.76,-0.02 1.09,-0.04 v 0.47 h -0.7 z"
       inkscape:connector-curvature="0"
       style="fill:#000000;stroke-width:0" /></g>  <g
     id="g3164"
     transform="matrix(3,0,0,-3,-517.43453,2209.157)"
     xml:space="preserve"
     stroke="black"
     stroke-linecap="butt"
     stroke-linejoin="miter"
     stroke-miterlimit="10.433"
     stroke-dasharray="none"
     stroke-dashoffset="0"
     stroke-opacity="1"
     fill="none"
     fill-rule="evenodd"
     fill-opacity="1"
     font-style="normal"
     font-variant="normal"
     font-weight="normal"
     font-stretch="normal"
     font-size-adjust="none"
     letter-spacing="normal"
     word-spacing="normal"
     text-anchor="start"
     ns0:text="$\\mathbf{P}_\\textrm{d}$"
     ns0:preamble=""
     style="font-style:normal;font-variant:normal;font-weight:normal;font-stretch:normal;letter-spacing:normal;word-spacing:normal;text-anchor:start;fill:none;stroke:#000000;stroke-linecap:butt;stroke-linejoin:miter;stroke-miterlimit:10.43299961;stroke-opacity:1;stroke-dasharray:none;stroke-dashoffset:0"><path
       d="M226.31,710.12 L226.25,710.53 V713.47 H227.59 C229.08,713.47,229.08,712.72,229.08,712 C229.08,711.3,229.08,710.53,227.58,710.53 H227.58 H226.25 L226.31,710.12 H228.07 C229.45,710.12,230.6,710.84,230.6,712 C230.6,713.09,229.62,713.94,227.97,713.94 H223.82 V713.47 H224.9 V707.59 H223.82 V707.12 C224.2,707.16,225.17,707.16,225.6,707.16 C226.03,707.16,227,707.16,227.38,707.12 V707.59 H226.31 Z "
       stroke-width="0"
       fill="black"
       id="path3166" /><path
       d="M235.04,704.18 V703.53 L236.51,703.64 V703.95 C235.81,703.95,235.73,704.02,235.73,704.5 V710.53 L234.3,710.42 V710.11 C234.99,710.11,235.07,710.04,235.07,709.56 V707.41 C234.79,707.77,234.36,708.03,233.82,708.03 L233.86,707.81 C234.21,707.81,234.63,707.66,234.93,707.21 C235.04,707.04,235.04,707.03,235.04,706.85 H235.04 V704.81 C235.04,704.63,235.04,704.61,234.93,704.44 C234.64,703.97,234.19,703.75,233.76,703.75 C233.31,703.75,232.96,704.01,232.72,704.38 C232.46,704.79,232.43,705.36,232.43,705.76 C232.43,706.13,232.45,706.73,232.74,707.17 C232.95,707.48,233.32,707.81,233.86,707.81 L233.82,708.03 C232.65,708.03,231.6,707.05,231.6,705.77 C231.6,704.51,232.58,703.53,233.71,703.53 C234.35,703.53,234.8,703.87,235.04,704.18 Z "
       stroke-width="0"
       fill="black"
       id="path3168" /></g>  <g
     style="font-style:normal;font-variant:normal;font-weight:normal;font-stretch:normal;letter-spacing:normal;word-spacing:normal;text-anchor:start;fill:none;stroke:#000000;stroke-linecap:butt;stroke-linejoin:miter;stroke-miterlimit:10.43299961;stroke-opacity:1;stroke-dasharray:none;stroke-dashoffset:0"
     ns0:preamble=""
     ns0:text="$\\mathbf{Q}_{\\textrm{d}}$"
     text-anchor="start"
     word-spacing="normal"
     letter-spacing="normal"
     font-size-adjust="none"
     font-stretch="normal"
     font-weight="normal"
     font-variant="normal"
     font-style="normal"
     fill-opacity="1"
     fill-rule="evenodd"
     fill="none"
     stroke-opacity="1"
     stroke-dashoffset="0"
     stroke-dasharray="none"
     stroke-miterlimit="10.433"
     stroke-linejoin="miter"
     stroke-linecap="butt"
     stroke="black"
     xml:space="preserve"
     transform="matrix(3,0,0,-3,-417.06409,2267.6015)"
     id="g3355"><path
       id="path3357"
       fill="black"
       stroke-width="0"
       d="M229.32,707.3 L229.47,707.37 L229.61,707.43 L229.75,707.5 L229.88,707.58 L230,707.66 L230.12,707.74 L230.23,707.83 L230.33,707.92 L230.43,708.01 L230.52,708.11 L230.61,708.21 L230.69,708.31 L230.77,708.41 L230.84,708.52 L230.9,708.62 L230.96,708.73 L231.02,708.84 L231.07,708.95 L231.12,709.06 L231.16,709.18 L231.2,709.29 L231.23,709.4 L231.26,709.51 L231.29,709.63 L231.31,709.74 L231.33,709.85 L231.35,709.96 L231.36,710.07 L231.37,710.18 L231.38,710.29 L231.38,710.39 L231.38,710.49 C231.38,712.64,229.94,714.05,227.73,714.05 C225.45,714.05,224.07,712.58,224.07,710.49 C224.07,708.47,225.42,707.02,227.73,707.02 V707.41 C227.18,707.41,227.11,707.73,227.11,707.85 H226.76 C226.76,707.79,226.76,707.68,226.79,707.63 H226.79 C225.56,708.22,225.53,709.73,225.53,710.5 C225.53,710.9,225.53,711.84,225.9,712.55 C226.42,713.5,227.27,713.65,227.72,713.65 C228.26,713.65,229.03,713.45,229.51,712.61 C229.89,711.94,229.92,711.09,229.92,710.5 C229.92,709.95,229.92,708.47,228.96,707.81 C228.74,708.14,228.39,708.66,227.72,708.66 C227.21,708.66,226.76,708.33,226.76,707.85 H227.11 C227.11,708.12,227.4,708.31,227.73,708.31 C228.01,708.31,228.35,708.2,228.55,707.57 H228.55 C228.3,707.46,228,707.41,227.73,707.41 V707.02 C227.95,707.02,228.28,707.03,228.68,707.1 C228.95,705.98,229.15,705.2,230.08,705.2 C231.09,705.2,231.44,706.37,231.44,707.05 C231.44,707.12,231.44,707.3,231.26,707.3 C231.11,707.3,231.09,707.17,231.08,707.1 C231.02,706.73,230.41,706.72,230.24,706.72 C230.01,706.72,229.71,706.72,229.32,707.3 Z " /><path
       id="path3359"
       fill="black"
       stroke-width="0"
       d="M235.82,704.18 V703.53 L237.28,703.64 V703.95 C236.59,703.95,236.51,704.02,236.51,704.5 V710.53 L235.07,710.42 V710.11 C235.77,710.11,235.85,710.04,235.85,709.56 V707.41 C235.56,707.77,235.13,708.03,234.6,708.03 L234.64,707.81 C234.98,707.81,235.4,707.66,235.71,707.21 C235.82,707.04,235.82,707.03,235.82,706.85 H235.82 V704.81 C235.82,704.63,235.82,704.61,235.71,704.44 C235.41,703.97,234.96,703.75,234.54,703.75 C234.09,703.75,233.73,704.01,233.49,704.38 C233.23,704.79,233.2,705.36,233.2,705.76 C233.2,706.13,233.22,706.73,233.51,707.17 C233.72,707.48,234.1,707.81,234.64,707.81 L234.6,708.03 C233.42,708.03,232.38,707.05,232.38,705.77 C232.38,704.51,233.35,703.53,234.49,703.53 C235.12,703.53,235.57,703.87,235.82,704.18 Z " /></g>  <g
     style="font-style:normal;font-variant:normal;font-weight:normal;font-stretch:normal;letter-spacing:normal;word-spacing:normal;text-anchor:start;fill:none;stroke:#000000;stroke-linecap:butt;stroke-linejoin:miter;stroke-miterlimit:10.43299961;stroke-opacity:1;stroke-dasharray:none;stroke-dashoffset:0"
     id="g3181"
     transform="matrix(2.5,0,0,-2.5,-407.28571,1964.2857)"
     xml:space="preserve"
     stroke-miterlimit="10.433"
     font-style="normal"
     font-variant="normal"
     font-weight="normal"
     font-stretch="normal"
     font-size-adjust="none"
     letter-spacing="normal"
     word-spacing="normal"
     ns0:text="$\\mathbf{l}$"
     ns0:preamble=""><path
       style="fill:#000000;stroke-width:0"
       inkscape:connector-curvature="0"
       d="m 225.66,714.02 -1.76,-0.08 v -0.47 c 0.62,0 0.69,0 0.69,-0.38 v -5.5 h -0.69 v -0.47 c 0.32,0.02 0.8,0.04 1.22,0.04 0.43,0 0.89,-0.02 1.23,-0.04 v 0.47 h -0.69 z"
       id="path3183" /></g>  <g
     style="font-style:normal;font-variant:normal;font-weight:normal;font-stretch:normal;letter-spacing:normal;word-spacing:normal;text-anchor:start;fill:none;stroke:#000000;stroke-linecap:butt;stroke-linejoin:miter;stroke-miterlimit:10.43299961;stroke-opacity:1;stroke-dasharray:none;stroke-dashoffset:0"
     ns0:preamble=""
     ns0:text="$\\mathbf{\\widetilde{l}}$"
     text-anchor="start"
     word-spacing="normal"
     letter-spacing="normal"
     font-size-adjust="none"
     font-stretch="normal"
     font-weight="normal"
     font-variant="normal"
     font-style="normal"
     fill-opacity="1"
     fill-rule="evenodd"
     fill="none"
     stroke-opacity="1"
     stroke-dashoffset="0"
     stroke-dasharray="none"
     stroke-miterlimit="10.433"
     stroke-linejoin="miter"
     stroke-linecap="butt"
     stroke="black"
     xml:space="preserve"
     transform="matrix(2.5,0,0,-2.5,-457.28571,1908.2857)"
     id="g3800"><path
       id="path3802"
       fill="black"
       stroke-width="0"
       d="M227.64,716.93 L227.55,716.85 L227.45,716.78 L227.36,716.71 L227.27,716.64 L227.17,716.58 L227.08,716.52 L226.98,716.47 L226.88,716.42 L226.84,716.4 L226.79,716.38 L226.74,716.36 L226.69,716.34 L226.64,716.32 L226.6,716.3 L226.55,716.29 L226.5,716.27 L226.45,716.26 L226.4,716.25 L226.36,716.24 L226.31,716.23 L226.26,716.23 L226.21,716.22 L226.16,716.22 L226.12,716.22 C225.72,716.22,225.43,716.39,225.08,716.59 C224.79,716.76,224.49,716.93,224.09,716.93 C223.84,716.93,223.58,716.85,223.36,716.75 C223.16,716.65,222.96,716.54,222.79,716.4 L222.26,715.96 L222.4,715.79 C222.88,716.2,223.41,716.5,223.92,716.5 C224.32,716.5,224.6,716.33,224.95,716.13 C225.24,715.96,225.55,715.79,225.95,715.79 C226.2,715.79,226.46,715.87,226.67,715.97 C226.87,716.07,227.07,716.18,227.24,716.32 L227.78,716.76 Z " /><path
       id="path3804"
       fill="black"
       stroke-width="0"
       d="M225.66,714.02 L223.9,713.94 V713.47 C224.52,713.47,224.59,713.47,224.59,713.09 V707.59 H223.9 V707.12 C224.22,707.14,224.7,707.16,225.12,707.16 C225.55,707.16,226.01,707.14,226.35,707.12 V707.59 H225.66 Z " /></g></svg>
